<svg data-slopcamera-line-weight="1.5" xmlns="http://www.w3.org/2000/svg" width="341" height="431" viewBox="15.199 15.575 309.664 399.475"><defs><mask id="a" width="341" height="431" x="0" y="0" mask-type="luminance" maskContentUnits="userSpaceOnUse" maskUnits="userSpaceOnUse"><path d="M0 0h341v431H0z"/><path d="M0 0h341v431H0zm129.8 38.3Q114 45.3 101 57l-1.5 1.3Q87.1 69.5 79 84q-3.9 7.8-7 16l-1 2.6c-3.9 10.7-4.4 21.5-4.4 32.8.2 12 2.5 22.8 6.7 34 1.8 4.6 3.5 8.8 6.7 12.6l5-1 1-1c-.4-6-2.4-11-4.6-16.3-3-7.7-4.7-15-4.9-23.3v-7.5c.2-9.5.6-18.8 3.8-28 4-11 9.2-20.8 16.7-29.9l2.2-2.6c7.2-8.4 15.2-14.7 24.7-20.2 9.7-5.3 19.4-9 30.3-10.7 11.4-1.4 24-1.9 35.3.2Q194.8 43 200 45l1.9.7c11.5 4 21.5 9.7 31 17.5 8 7 15 15.8 20.5 24.9q2.7 5 4.8 10.3l.8 1.8c3 8 5.1 16 5.4 24.5v10.2c-.1 9-.7 18-3.9 26.5L259 165l-.8 2-3.1 6.9v6l2 2h5c5.9-10.3 9.3-21.2 11.6-32.9.7-5.2.6-10.5.6-15.8V130c0-10.3-1.5-19.8-4.9-29.6-4.7-12.2-11-24-19.7-33.9q-13.3-14.7-31-24.2-11.2-6-23.6-9.2l-2.8-.7c-20.2-4.3-43.3-2-62.4 6m8.8 28.4Q127.8 72 119 80l-2.4 2.1c-6.4 6.1-11 12.8-15 20.7q-2 4-3.6 8.2l-1 2.4c-2.9 8.7-2.3 17.9-2 27v1.6l7 1 2-3v-3.4c.3-9.3 1.2-17.6 4.6-26.3 2.9-6.9 6.7-12.7 11.5-18.4q8.7-9.2 19.7-15.5 10-5 21.2-6.4c9.2-.8 18-.4 27 2 9.4 3 18 7 26 13q8.7 7.3 14.4 17.1c3.7 6.7 6.8 13.8 8.3 21.3q1 9.2 1.3 18.6l1 1h5l2-2c.4-10 .3-19.4-2.6-29q-3.7-11.2-10.5-20.5Q229 87 225 83l-1.7-1.9c-5.1-5.7-11.6-9.5-18.3-13.1q-6-3-12-5l-2.7-1c-8.5-2.5-17.1-2.7-25.9-2.2q-13.4 1.2-25.8 7m12 28q-10 5-18.6 12.3-2.3 2.7-4.5 5.6l-1.2 1.6c-4.4 6.2-7.8 12.5-9.9 19.8-1.7 6.3-1.9 12.3-2 18.8v3.7l-.1 10-.2 10.6-.2 19.8-.3 22.6-.6 46.5-10.7 6.2-3.6 2-19 11-17 9.9-5 2.8-8.3 4.8-4.6 2.6q-7.6 4.4-14.8 9.7l1 5q8.5 6 17.6 11l5 2.9 2.7 1.5 14 8.2 3 1.8 17 10q16.7 9.8 33.6 19.2c14.6 8 28.8 16.8 43.1 25.4h7l2.2-1.3q20.2-12 40.6-23.6l27.2-16 8.1-4.7 24.4-14.3 13.1-7.8 4.6-2.7 5.8-3.4 2.7-1.5 2.3-1.4c2-1.3 3.4-2.6 5-4.3v-5q-13.7-8.1-27.5-16l-25.1-14.6-8.2-4.8-11.5-6.8-2.4-1.4-7.3-4.4v-1.4l-.3-35.4-.2-17.1-.5-41.4v-7.5l-.2-10.3-.1-5c-.3-7.9-2-14.6-4.7-21.9q-1.6-3.5-3.8-6.8l-1-1.6c-4.3-6.4-8.7-11.7-14.9-16.3q-9-6-19.6-9c-10.5-1.4-22-1.6-32 2.4"/><path d="M216 169h1v143c-3 5-3 5-4.5 6.6-6.1 4.8-13.2 7.3-20.5 9.8-6.3 1.8-12.7 1.8-19.3 1.8l-5.3.1c-9 0-17-1-25.5-4q-6.3-2.7-11.7-6.7L127 316l-2-2V170l15 8c12.2 4.2 23.7 4.5 36.5 4.3 7.8-.3 15.6-1 23-3.9l4-1.8 2-.9c4-1.8 7.2-3.8 10.5-6.7"/><path fill="#030303" d="M114 275h1v3.3l.1 12.4v5.3c-.2 9.5-.2 9.5 1.5 18.8q2 4.5 5.4 8.2 5.2 5.1 11.8 8.4 12.2 5.5 25.5 6.9 5 .2 10 .1h1.7c10.1 0 19.4-1.2 29-4.4l3-1q7.2-2.4 13.2-7.3 4.5-4.3 7.8-9.7c.9-2.6 1.1-4.1 1.2-6.7V307l.1-2.4v-2.5l.3-7.8V289l.4-13q4.6 1.7 8.7 4l2.2 1.3 2.3 1.4 5 3 2.9 1.6 14.3 8.3 24.5 14.2 2.1 1.2 1.9 1.1 1.6 1 4.5 2.9v2q-13.8 8.4-27.9 16.4l-21.7 12.7-19.8 11.6-1.6.9-17.8 10.3Q189.4 380 172 391q-3.9-.7-7.3-2.7l-3.9-2.2-2.1-1.3q-8.6-4.8-17-9.9l-16.8-9.6L90 345l-1.8-1L44 318c2.4-2.8 5-4.7 8.1-6.5l5.1-2.9q3-1.5 5.7-3.2l3-1.7 15.2-8.7 3-1.8 20.3-12 2.6-1.6 2.4-1.4 2-1.2c1.6-1 1.6-1 2.6-2"/><path fill="#f7f7f7" d="M180 92q8.4 1.3 15.8 5.5 8 4.3 14.4 10.9c6.1 7.2 10.4 14.4 13.9 23.3 1 3.9 1.2 7.3 1.2 11.4v2.4l.1 7.8v5.6l.2 14.8.1 11.7q.4 40.2.3 80.6l2.3 1q4 1.5 7.8 3.8l2.9 1.6 3 1.7 1.6 1q9.3 5.1 18.5 10.9 8.6 5.3 17.5 10.2Q294.9 305 310 314v5c-5.2 4.8-11.1 8.1-17.3 11.5l-9.4 5.4-2 1q-7.8 4.4-15.4 9.2-11.3 6.8-22.8 13.3L216.6 375l-28 16.5-1.8 1-3.4 2-9.4 5.6h-7l-5.2-3-4.6-2.7-11.4-6.8q-20-11.8-40-23.1-8.3-4.7-16.5-9.6-9.5-5.7-19.2-11.2C39.3 325.8 39.3 325.8 31 320l-1-5q9.7-6.6 20-12.4l3-1.9 10-5.7 1.6-1 14.6-8.4 26.4-15.3 2.9-1.7 2.5-1.4 4-2.2v-2l.2-48.3v-23.3l.2-20.4v-24.6c0-6.2.4-11.6 2.5-17.5 2.4-5.9 5.5-10.8 9.1-15.9l1.1-1.7c3.7-5 9.1-8.8 14.3-12.3 11.8-7.3 24-8 37.6-7m-28.3 12q-9.5 5-16.7 13-6.8 8.6-10.3 19-1 5.3-1.1 10.8v1.9q-.1 2.7.4 5.3 1.6 4.3 4.6 8c3.7 3.3 7.4 5.7 12 7.8q13.4 5.2 27.9 5.5c8.3 0 16.5-.2 24.4-3 6.7-2.5 13.3-5.2 19-9.8q3-3 5.1-6.9 1.3-3.8 1.3-8c-.2-5.8-1.3-11-3.5-16.5-3-6.5-6.5-11.7-11.5-17-4.5-4.2-9-7.7-14.7-10.3q-7.8-3.3-16-4c-7.4-.3-14.1 1.3-21 4.2m65.3 64-2.3 2.2c-4.4 3.6-9.5 5.6-14.7 7.8l-2.3 1c-7.8 3-16.3 3.3-24.5 3.4H168c-9 0-17.7-.6-26.2-3.7q-7.7-3.2-14.8-7.7l-1-2h-2v143c4.2 6.5 4.2 6.5 7.3 8.9q10.4 6.1 22.5 8.6 7.2.9 14.5.7l5.3.1c9.2 0 17.3-1.5 26-4.4 5.6-2.4 10.3-5 14.9-9 1.6-1.9 1.6-1.9 2.6-4.1 1-3.1 1.1-5.5 1.1-8.8v-57.6l-.1-25.7-.1-52.7zM114 275l-2.6 1.7Q98 285 84 293l-27 15.9-2 1.1-10 6v3l1.4.8Q62 328 77.1 337.2q13.2 8 26.6 15.7l1.7 1 19.3 11q22.2 12.8 44.3 26.1c2.5-.5 4.4-1.2 6.7-2.4l3-1.9 1.8-1 3.6-2.1 9.8-5.8 2-1.2 20.7-12q13-7.3 25.9-15 10.2-6.2 20.7-12.2l1.7-1 1.6-1 3.3-1.8 1.6-1q7.3-4.1 14.5-8.4l2.1-1.2 8-5-1-3-1.3-.7q-15.5-8.6-30.8-17.6l-15.5-9Q237.6 282 228 276h-2v3.3l-.2 12v5.3l-.2 7.5v2.4q.2 4.5-1.5 8.8-2 4.2-4.9 7.8c-5 4.3-10 7.5-16.2 9.9-13.3 4.5-26.2 5.5-40.2 5.3-8-.2-15.3-1.4-22.8-4.3q-8.5-3.3-16-8.8-4.1-4-7-9c-2.4-7.3-1.8-15.2-1.8-22.8v-5.3q-.3-6.5-.2-13.1z"/><path fill="#030303" d="M175 100c5.8 1 11.4 2.4 16.6 5.1q9.4 5.8 16.4 14.4 6 8 9 17.5c.8 3 .8 3 1 6l.2 2c.2 3.3 0 6-.8 9.1q-1.9 4.2-4.8 7.6c-3.3 3-6.9 5-11 7-7.9 3.4-15.8 5.9-24.5 6.4-11.6.5-22.3-.7-33.4-4.1-5.3-2-9.5-4.4-13.8-8-2.2-2-3.7-3.7-5.1-6.3-1.5-5.2-1.3-10.5-1-15.8q.6-5.4 2.9-10.3 4.6-9.5 11.6-17.4 6.2-5.6 13.7-9.2 4.5-1.8 9-3l2-.6q6-1 12-.4"/><path fill="#f4f4f4" d="M195.3 33c12.3 3.2 24.1 9 34.7 16q6.8 5.1 13 11l2.5 2.2c8.7 8 14.4 18.3 19.8 28.8q6.6 12.7 8.5 27c1.3 14 1 28.2-2.7 42-2 7.5-4.5 15.5-9.1 22h-5l-2-2v-6c1-2.6 1-2.6 2.3-5.2 3.3-7 5.6-13.8 6.5-21.4 1-11.5 1.7-24.7-1-36q-4.5-15.8-13.8-29.6c-7.1-10-15-18.6-25.1-25.6q-14-9-29.9-13.2l-2-.5c-6.5-1.7-12.8-1.8-19.6-1.8H169c-11.2.2-21.2 1.4-31.7 5.2q-16.2 6-29.5 17.4c-9.2 8.4-16.2 17.9-22 28.8Q79 105.4 77 120q-.4 6.7-.4 13.6v2c-.1 10.4 1.3 19.6 4.8 29.5q1.4 3.7 3.3 7.3L86 175c.2 2.9.2 2.9 0 5l-2 2-5-1c-5.7-10.6-9.5-21.1-11.6-33q-.9-7.6-.7-15.3v-3.3c.2-11.3 2.3-21 6.1-31.6Q79.3 80.8 91 67c8.2-9.3 17.2-17 28-23.1 11.6-6.3 22.7-10.4 35.8-12.3 13.3-1.7 27.4-1.7 40.5 1.4"/><path fill="#f4f4f4" d="M185 60.6c9.6 2.1 18.6 6.4 27 11.4q4.8 3.1 9 7l1.3 1.2c6.3 5.6 11 11.4 15.2 18.8q6 10.8 8.3 23c.7 6.3.4 12.7.2 19l-2 2h-5l-1-1v-3c-.5-10.3-1.8-20-5.7-29.7-3.2-7.3-7.6-13.4-13-19.2-5.9-6-12.3-10.3-19.8-13.8-7.5-3.3-15.2-5.9-23.4-6.4-8.5-.4-16.7-.2-25 2q-11.6 4-21.6 11.3c-5.8 4.8-11.6 10-15.5 16.4q-3.3 6-6 12.4l-1 2.5c-3 8-2.7 17-3 25.5l-2 3-7-1c-.9-18-.9-18 1.4-26.5q1.6-4.8 3.6-9.5l.7-1.8c3.3-7.3 7.6-13.2 13.1-19L118 81l2.2-2.2c5.8-5.7 12.6-9.5 19.8-13 13.9-5.9 30.1-7.8 45-5.2"/><path fill="#292929" d="m124 169 2 1-1 142h-1z"/><path fill="#969696" d="M217 168h1v142h-1z"/><path fill="#bcbcbc" d="M115 140h1v125h-1z"/><path fill="#151515" d="M226 168h1v98h-1z"/><path fill="#e6e6e6" d="M225 139h1v84h-1z"/><path fill="#101010" d="M114 194h1v72h-1z"/></mask></defs><g fill="#2474d4" stroke="#2474d4" stroke-width="1.5" stroke-linejoin="round" vector-effect="non-scaling-stroke" mask="url(#a)"><path d="M203.4 101c12.8 10.2 20.8 24.4 23.3 40.5 1 8.7.5 17.5.4 26.1l-.1 16q0 15-.3 29.9l-.2 20.8v7.9c-1 14-1 14 4.5 26.1 3.7 2.1 7 3.4 11 4.7l5.2 3 2.3 1.5 2.4 1.4q10.8 6.6 21.8 12.7Q292.8 302 311 314c.2 3 .2 3-1 7-3.3 3-7.2 4.9-11 7l-5 2.9-10.8 6.1-12.9 7.6q-14.5 8.7-29.2 17-26 15-51.6 30.5l-4.3 2.6-4.5 2.7-2.3 1.4-2 1.3c-4.5 1.7-8.2 1.4-12.5-.4l-3-2-3.6-2-3.7-2.3-4-2.4-7.8-4.7-16-9.4-3-1.7-25-14.6L73 346.3 46.7 331c-16.4-9.5-16.4-9.5-18-12.6.5-3.9 2.4-5 5.3-7.5q5.5-3.5 11.3-6.7l6.5-3.7 3.2-1.9 11.6-6.8q11.3-6.6 22.8-13l5.3-3c3.3-1.9 3.3-1.9 7.1-3.6 7.9-3.8 7.9-3.8 12.5-10.8q.7-6.5.3-13v-4.9l-.1-10.3-.2-16.1q0-10.8-.2-21.4-.1-17.4.2-35v-8.6c.2-17.7 5-32.9 17.3-46 20.5-18.5 48.9-21.2 71.8-5.3M136 117c-7.9 10.3-12.7 21.9-12 35 1.5 6.2 5.7 10.6 11 14 18 9.4 39.6 10.9 59 5 9.2-3 17-6.8 22-15.4 3.2-11.3-.8-21.2-6-31.2-6.2-10.5-14.8-18-26.6-21.5-18.6-4.3-34.4-.1-47.4 14.1m-11 54-.4 54.7-.1 25.5-.2 22.1v24.8l-.2 4c0 6 .3 10 4.3 14.6 12 11.8 28.9 12.8 44.8 12.7 14.8-.3 30-2.7 41-13.5 2.7-4.2 3-7.8 3-12.6v-11.5l-.1-11v-58.5L217 171l-6.1 3.1c-19.7 10.5-45 12.6-66.4 6.3q-9-3.7-17.5-8.4zm-18.3 109.8q-9.5 5.7-19 11.1l-25.8 15-5.8 3.4-3.7 2.1-3.2 2L47 316v3l1.7 1q28.5 16 56.5 32.6l16 9.3c20.5 11.6 20.5 11.6 29.8 17.4 10 6.5 10 6.5 21 10.7 3.2-1.5 3.2-1.5 6.7-3.8l4-2.5 2.2-1.4 10.2-6.1 2.1-1.3 17.1-9.8 23-13.4q11.6-7 23.3-13.8l13.7-8.1q6.4-3.9 13.2-7.2c3-1.9 5.1-4 7.5-6.6l-1.8-1q-17.1-9.6-34-19.5l-14.2-8.3-2.3-1.4L227 277v3.1l-.3 11.5v5l-.2 7v4.4c-.8 6.6-3.3 11-7.5 16v2l-4 2-2.5 1.4c-20.7 11.1-46 12.4-68.5 6.6-7.5-2.5-13.9-5-20-10h-2l-2-4-2-3.2c-4.3-8.3-3.1-18.2-3-27.3V277c-3.3 0-5.5 2-8.3 3.8"/><path d="M236.2 52.6q4.1 3.5 7.8 7.4l3.2 3c18.6 18.6 28 45 28.2 71-.2 15.4-2.6 35.5-12.4 48-3 1.1-3 1.1-6 1l-3-3c0-6 2.6-11.1 4.7-16.6 7.8-20.7 7.3-43.8-1.3-64.3C252.8 89 247.5 80.3 240 72l-2.3-2.6c-6.4-6.8-13.6-11.7-21.7-16.4l-2.8-1.7c-20.4-11.4-46.5-12.8-68.6-6.6-24.5 7.6-44.2 22.2-56.6 45-12.4 25.4-13.3 49.8-5.3 76.5 1.2 3.8 1.2 3.8 3 7.1 1.3 2.7 1.3 2.7 1 5.5C86 181 86 181 85 182c-2.8.6-2.8.6-6 0-3.8-5.3-6.2-10.6-8.2-16.8l-.8-2.4c-8.5-27.5-3.9-55.5 9.3-81Q84.1 74.2 90 67l1.5-2c4.4-5.5 10-9.7 15.5-14l2.4-1.8c37.4-27.8 90.8-25.2 126.8 3.4"/><path d="M217.7 75.2 225 82q1.4 1.2 2.7 2.6c12.5 13.5 19.4 31.2 19.5 49.6v3c-.2 2.8-.2 2.8-2.2 6.8h-6c-3.2-3.2-2.6-7.5-2.9-11.9-1.5-18.4-8.3-34-22.6-46.2C198.2 74 181.2 69.5 162 71c-17.7 2.9-33 10.7-44.4 25-8.7 12.6-13 26.1-12.3 41.4-.4 3.1-1.1 4.4-3.3 6.6-3 .4-3 .4-6 0-4.1-6.2-2.5-15-1.3-22.1 3.2-13.5 7.8-24 16.3-34.9l2-3h2v-2h2v-2c11-10.1 25.3-17.4 40-20l3.5-.7c20.4-1.8 41.1 2.6 57.2 16"/></g></svg>