<svg width="1200" height="630" viewBox="0 0 1200 630" xmlns="http://www.w3.org/2000/svg"><mask id="satori_om-id"><rect x="0" y="0" width="1200" height="630" fill="#fff"/></mask><rect x="0" y="0" width="1200" height="630" fill="#f8f7f4"/><defs><clipPath id="satori_bc-id-0"><rect x="60" y="60" width="1080" height="54"/></clipPath></defs><mask id="satori_om-id-0"><rect x="60" y="60" width="1080" height="52" fill="#fff"/><path width="1080" height="54" fill="none" stroke="#000" stroke-width="4" d="M1140,114 A0,0 0 0 1 1140,114 h-1080 A0,0 0 0 1 60,114"/></mask><path width="1080" height="54" clip-path="url(#satori_bc-id-0)" fill="none" stroke="#355e3b" stroke-width="4" d="M1140,114 A0,0 0 0 1 1140,114 h-1080 A0,0 0 0 1 60,114"/><mask id="satori_om-id-0-0"><rect x="60" y="73" width="160" height="26" fill="#fff"/></mask><g  ><path fill="#1c1a18" d="M62.1 94L65.5 94L65.5 88.5C65.5 87.0 65.5 84.3 65.3 82.8L67.0 86.8L69.7 92.7L71.8 92.7L76.2 82.8C76.0 84.4 76.0 87.0 76.0 88.5L76.0 94L79.4 94L79.4 78.3L75.2 78.3L72.1 85.2L70.9 88.0L70.8 88.0C70.3 87.0 69.8 86.1 69.4 85.2L66.3 78.3L62.1 78.3ZM91.3 94.3C95.9 94.3 99.1 91.2 99.1 86.1C99.1 80.9 95.9 78.0 91.3 78.0C86.7 78.0 83.5 80.9 83.5 86.1C83.5 91.2 86.7 94.3 91.3 94.3ZM91.3 91.1C88.9 91.1 87.3 89.2 87.3 86.1C87.3 83 88.9 81.2 91.3 81.2C93.8 81.2 95.3 83 95.3 86.1C95.3 89.2 93.7 91.1 91.3 91.1ZM103.0 94L106.7 94L106.7 88.4L108.6 88.4L111.5 94L115.7 94L112.1 87.8C113.8 87.0 114.9 85.5 114.9 83.2C114.9 79.5 112.1 78.3 108.8 78.3L103.0 78.3ZM108.5 85.5L106.7 85.5L106.7 81.2L108.5 81.2C110.3 81.2 111.3 81.7 111.3 83.2C111.3 84.7 110.3 85.5 108.5 85.5ZM119.1 94L122.8 94L122.8 88.7L124.7 88.7C128.0 88.7 130.9 87.1 130.9 83.4C130.9 79.5 128.0 78.3 124.6 78.3L119.1 78.3ZM124.4 85.8L122.8 85.8L122.8 81.2L124.3 81.2C126.2 81.2 127.2 81.8 127.2 83.4C127.2 85.0 126.3 85.8 124.4 85.8ZM134.9 94L138.6 94L138.6 87.5L144.8 87.5L144.8 94L148.6 94L148.6 78.3L144.8 78.3L144.8 84.3L138.6 84.3L138.6 78.3L134.9 78.3ZM160.2 94.3C164.8 94.3 168.0 91.2 168.0 86.1C168.0 80.9 164.8 78.0 160.2 78.0C155.6 78.0 152.4 80.9 152.4 86.1C152.4 91.2 155.6 94.3 160.2 94.3ZM160.2 91.1C157.8 91.1 156.2 89.2 156.2 86.1C156.2 83 157.8 81.2 160.2 81.2C162.7 81.2 164.2 83 164.2 86.1C164.2 89.2 162.6 91.1 160.2 91.1ZM179.7 94.3C182.1 94.3 184.2 93.5 185.4 92.4L185.4 85.1L179.1 85.1L179.1 88.1L182.1 88.1L182.1 90.7C181.6 91.0 180.8 91.1 180.1 91.1C176.8 91.1 175.1 89.3 175.1 86.1C175.1 83.0 177.1 81.2 179.8 81.2C181.3 81.2 182.2 81.5 183.2 82.3L185.1 80.0C183.9 78.9 182.2 78.0 179.7 78.0C175.1 78.0 171.3 81.0 171.3 86.2C171.3 91.5 175.0 94.3 179.7 94.3ZM189.5 94L199.7 94L199.7 90.9L193.2 90.9L193.2 87.5L198.5 87.5L198.5 84.4L193.2 84.4L193.2 81.4L199.5 81.4L199.5 78.3L189.5 78.3ZM204.0 94L207.6 94L207.6 88.7C207.6 86.8 207.6 84.9 207.3 83.0C207.9 84.3 208.6 85.6 209.1 86.4L213.6 94L217.5 94L217.5 78.3L213.9 78.3L213.9 83.6C213.9 85.4 213.9 87.6 214.2 89.2C213.9 88.7 213.1 87.1 212.4 85.9L207.9 78.3L204.0 78.3Z "/></g><mask id="satori_om-id-0-1"><rect x="1098" y="65" width="42" height="42" fill="#fff"/></mask><clipPath id="satori_cp-id-0-1-0"><rect x="1098" y="65" width="42" height="42"/></clipPath><mask id="satori_om-id-0-1-0"><rect x="1098" y="65" width="42" height="42" fill="#fff"/></mask><image x="1098" y="65" width="42" height="42" href="data:image/svg+xml;utf8,%3Csvg  aria-label=%22morphogen%22 role=%22img%22 xmlns=%22http://www.w3.org/2000/svg%22 width=%2242%22 height=%2242%22 viewBox=%220 0 42 42%22%3E%3Ccircle cx=%2216%22 cy=%2223%22 r=%2211%22 fill=%22%231c1a18%22%3E%3C/circle%3E%3Ccircle cx=%2230%22 cy=%2217%22 r=%227%22 fill=%22%231c1a18%22%3E%3C/circle%3E%3C/svg%3E" preserveAspectRatio="none" clip-path="url(#satori_cp-id-0-1-0)" mask="url(#satori_om-id-0-1-0)"/><mask id="satori_om-id-0-1-0-0"><rect x="1098" y="65" width="0" height="42" fill="#fff"/></mask><mask id="satori_om-id-0-1-0-1"><rect x="1098" y="65" width="0" height="42" fill="#fff"/></mask><mask id="satori_om-id-1"><rect x="60" y="140" width="1080" height="350" fill="#fff"/></mask><mask id="satori_om-id-1-0"><rect x="60" y="140" width="1080" height="258" fill="#fff"/></mask><mask id="satori_om-id-1-0-0"><rect x="60" y="140" width="1080" height="86" fill="#fff"/></mask><g  ><path fill="#1c1a18" d="M67.8 212L80.2 212L80.2 192C80.2 186.6 80.2 176.9 79.1 171.4L85.5 185.8L95.1 207.1L103.0 207.1L119.0 171.4C118 177.0 118 186.6 118 192L118 212L130.5 212L130.5 154.9L115.4 154.9L104.1 179.8L99.6 190.2L99.1 190.2C97.6 186.6 95.8 183.2 94.3 179.8L83.0 154.9L67.8 154.9ZM159.9 213.0C171.6 213.0 182.2 204.6 182.2 190.2C182.2 175.8 171.6 167.3 159.9 167.3C148.5 167.3 137.8 175.8 137.8 190.2C137.8 204.6 148.5 213.0 159.9 213.0ZM159.9 202.3C154.3 202.3 151.6 197.4 151.6 190.2C151.6 183.0 154.3 178.2 159.9 178.2C165.7 178.2 168.4 183.0 168.4 190.2C168.4 197.4 165.7 202.3 159.9 202.3ZM188.6 212L202.2 212L202.2 187.0C204.6 181.1 209.0 179.1 212.2 179.1C214.2 179.1 215.4 179.3 216.9 179.6L219.4 168.2C218.1 167.6 216.5 167.3 214.0 167.3C209.3 167.3 204.3 170.2 201.0 176L200.6 176L199.8 168.4L188.6 168.4ZM224.5 228L238.1 228L238.1 215.4L237.6 208.6C241.0 211.6 244.8 213.0 248.6 213.0C258.4 213.0 267.7 204.4 267.7 189.5C267.7 176.1 261.0 167.3 249.9 167.3C245.1 167.3 240.6 169.4 236.9 172.6L236.5 172.6L235.6 168.4L224.5 168.4ZM245.3 202.1C242.7 202.1 240.4 201.3 238.1 199.4L238.1 182C240.9 179.3 243.4 178.2 246.0 178.2C251.4 178.2 253.9 182.1 253.9 189.7C253.9 198.5 250.2 202.1 245.3 202.1ZM274.9 212L288.5 212L288.5 182.8C291.5 180.1 293.5 178.7 297.0 178.7C300.9 178.7 302.7 180.6 302.7 186.6L302.7 212L316.1 212L316.1 185.0C316.1 174.2 311.8 167.3 301.9 167.3C295.8 167.3 292.1 169.8 288.5 172.9L288.5 150.6L274.9 150.6ZM343.5 213.0C355.2 213.0 365.8 204.6 365.8 190.2C365.8 175.8 355.2 167.3 343.5 167.3C332.1 167.3 321.4 175.8 321.4 190.2C321.4 204.6 332.1 213.0 343.5 213.0ZM343.5 202.3C337.9 202.3 335.2 197.4 335.2 190.2C335.2 183.0 337.9 178.2 343.5 178.2C349.3 178.2 352 183.0 352 190.2C352 197.4 349.3 202.3 343.5 202.3ZM389.4 230.4C405.0 230.4 414.9 223.8 414.9 214.6C414.9 206.8 408.6 203.6 397.5 203.6L390.1 203.6C385.1 203.6 383.2 202.6 383.2 200.5C383.2 199.0 383.8 198.2 384.8 197.4C386.9 198 388.9 198.2 390.4 198.2C400.4 198.2 408.4 193.7 408.4 183.8C408.4 181.8 407.8 179.6 406.5 178.1L414.2 178.1L414.2 168.4L397.5 168.4C395.2 167.6 392.9 167.3 390.4 167.3C380.6 167.3 371.4 172.6 371.4 183.2C371.4 188.2 374.4 192.4 377.5 194.4C374.8 196.3 372.6 199.8 372.6 203.0C372.6 206.5 374.2 208.8 376.7 210.4C372.5 212.6 370.2 215.8 370.2 219.4C370.2 227.2 378.7 230.4 389.4 230.4ZM391.5 222C385.4 222 381.4 220.4 381.4 217.3C381.4 215.8 382.0 214.6 383.8 213.2C385.4 213.6 387.4 213.8 390.2 213.8L395.0 213.8C399.5 213.8 402.1 214.4 402.1 217.0C402.1 219.8 397.8 222 391.5 222ZM390.4 190.1C386.9 190.1 384.2 187.8 384.2 183.2C384.2 178.6 386.9 176.3 390.4 176.3C393.9 176.3 396.6 178.6 396.6 183.2C396.6 187.8 393.9 190.1 390.4 190.1ZM438.4 213.0C443.5 213.0 449.7 211.4 454.6 208.1L450.3 200.1C447.2 201.8 443.8 202.9 440.2 202.9C435.6 202.9 429.9 201.3 428.2 194.2L455.7 194.2C456.0 193.1 456.3 190.8 456.3 188.3C456.3 176.4 449.8 167.3 436.9 167.3C425.8 167.3 415.3 176.1 415.3 190.2C415.3 204.6 425.4 213.0 438.4 213.0ZM428.2 185.4C429.4 179.4 433.7 177.5 437.1 177.5C442.5 177.5 444.8 181.0 444.8 185.4ZM462.9 212L476.5 212L476.5 182.8C479.4 180.2 481.5 178.7 485.0 178.7C488.9 178.7 490.7 180.6 490.7 186.6L490.7 212L504.1 212L504.1 185.0C504.1 174.2 499.8 167.3 489.9 167.3C484.1 167.3 479.5 170 475.3 173.8L474.9 173.8L474.0 168.4L462.9 168.4ZM529.6 177.7C529.6 182.3 525.8 186.1 521.2 186.1C516.6 186.1 512.9 182.3 512.9 177.7C512.9 173.0 516.6 169.4 521.2 169.4C525.8 169.4 529.6 173.0 529.6 177.7ZM529.6 204.6C529.6 209.3 525.8 213.0 521.2 213.0C516.6 213.0 512.9 209.3 512.9 204.6C512.9 200 516.6 196.3 521.2 196.3C525.8 196.3 529.6 200 529.6 204.6Z M575.2 213.0C579.2 213.0 582.6 212.2 585.3 211.2L583.2 201.8C581.8 202.4 580.2 202.6 578.7 202.6C575.3 202.6 573.0 200.6 573.0 195.7L573.0 178.8L583.8 178.8L583.8 168.4L573.0 168.4L573.0 153.4L560.2 155.8L560.2 168.4L553.2 168.4L553.2 178.8L559.4 178.8L559.4 195.8C559.4 206.1 563.9 213.0 575.2 213.0ZM596.6 229.0C607.4 229.0 612.2 223.2 616.5 212.2L632.4 168.4L619.6 168.4L614.0 186.6C612.7 190.9 611.6 195.2 610.7 199.0L610.3 199.0C609.2 194.6 608.1 190.5 606.7 186.6L600.2 168.4L586.6 168.4L604.2 210.8L603.5 212.9C602.4 216.2 600.1 218.4 595.6 218.4C594.4 218.4 593.7 218.2 592.5 218L590.1 227.8C592.1 228.6 593.8 229.0 596.6 229.0ZM637.8 228L651.4 228L651.4 215.4L650.9 208.6C654.3 211.6 658.1 213.0 661.8 213.0C671.7 213.0 681.0 204.4 681.0 189.5C681.0 176.1 674.3 167.3 663.2 167.3C658.4 167.3 653.8 169.4 650.2 172.6L649.8 172.6L648.9 168.4L637.8 168.4ZM658.6 202.1C656 202.1 653.7 201.3 651.4 199.4L651.4 182C654.2 179.3 656.6 178.2 659.3 178.2C664.6 178.2 667.2 182.1 667.2 189.7C667.2 198.5 663.4 202.1 658.6 202.1ZM707.4 213.0C712.6 213.0 718.7 211.4 723.6 208.1L719.4 200.1C716.2 201.8 712.9 202.9 709.3 202.9C704.6 202.9 699.0 201.3 697.3 194.2L724.7 194.2C725.0 193.1 725.4 190.8 725.4 188.3C725.4 176.4 718.9 167.3 705.9 167.3C694.9 167.3 684.3 176.1 684.3 190.2C684.3 204.6 694.4 213.0 707.4 213.0ZM697.2 185.4C698.5 179.4 702.7 177.5 706.2 177.5C711.5 177.5 713.8 181.0 713.8 185.4ZM748.2 213.0C752.6 213.0 757.1 211.0 760.6 207.7L760.9 207.7L761.8 212L772.8 212L772.8 150.6L759.4 150.6L759.4 165.3L759.8 171.8C756.6 169.0 753.4 167.3 748.6 167.3C739.0 167.3 729.6 175.9 729.6 190.2C729.6 204.3 737.0 213.0 748.2 213.0ZM751.8 202.1C746.5 202.1 743.4 198.2 743.4 190C743.4 182.1 747.2 178.2 751.7 178.2C754.4 178.2 757.0 179.0 759.4 181.0L759.4 198.3C757.1 201.1 754.7 202.1 751.8 202.1ZM780.6 222.2L783.3 229.3C793.5 226.2 799.3 218.8 799.3 209.0C799.3 201.1 796.2 196.3 790.2 196.3C785.6 196.3 781.9 199.4 781.9 203.9C781.9 208.8 785.8 211.4 789.8 211.4L790.6 211.4C790.6 217.0 785.3 220.5 780.6 222.2Z "/></g><mask id="satori_om-id-1-0-1"><rect x="60" y="226" width="1080" height="86" fill="#fff"/></mask><g  ><path fill="#1c1a18" d="M66.2 298L79.8 298L79.8 273.0C82.2 267.1 86.6 265.1 89.8 265.1C91.7 265.1 92.9 265.3 94.4 265.6L97.0 254.2C95.6 253.6 94 253.3 91.5 253.3C86.8 253.3 81.8 256.2 78.6 262L78.2 262L77.3 254.4L66.2 254.4ZM119.6 299.0C124.7 299.0 130.9 297.4 135.8 294.1L131.5 286.1C128.4 287.8 125.0 288.9 121.4 288.9C116.8 288.9 111.1 287.3 109.4 280.2L136.9 280.2C137.2 279.1 137.5 276.8 137.5 274.3C137.5 262.4 131.0 253.3 118.1 253.3C107.0 253.3 96.5 262.1 96.5 276.2C96.5 290.6 106.6 299.0 119.6 299.0ZM109.4 271.4C110.6 265.4 114.9 263.5 118.3 263.5C123.7 263.5 126 267.0 126 271.4ZM144.6 314L158.2 314L158.2 301.4L157.8 294.6C161.2 297.6 165.0 299.0 168.7 299.0C178.6 299.0 187.8 290.4 187.8 275.5C187.8 262.1 181.2 253.3 170.1 253.3C165.3 253.3 160.7 255.4 157.0 258.6L156.6 258.6L155.8 254.4L144.6 254.4ZM165.4 288.1C162.9 288.1 160.6 287.3 158.2 285.4L158.2 268C161.0 265.3 163.5 264.2 166.2 264.2C171.5 264.2 174.1 268.1 174.1 275.7C174.1 284.5 170.3 288.1 165.4 288.1ZM194.5 298L208.1 298L208.1 236.6L194.5 236.6ZM228.2 299.0C233.4 299.0 237.7 296.7 241.5 293.5L241.8 293.5L242.8 298L253.8 298L253.8 273.3C253.8 259.7 247.3 253.3 235.6 253.3C228.7 253.3 222.2 255.4 216.1 259.1L220.9 267.7C225.6 265.2 229.4 264 233.0 264C238 264 240 266.2 240.3 269.9C222.2 271.7 214.5 276.7 214.5 285.9C214.5 293.1 219.9 299.0 228.2 299.0ZM232.7 288.7C229.6 288.7 227.4 287.4 227.4 284.8C227.4 281.6 230.6 279.1 240.3 277.9L240.3 285.1C237.7 287.4 235.7 288.7 232.7 288.7ZM267.4 315.0C278.3 315.0 283.1 309.2 287.4 298.2L303.3 254.4L290.5 254.4L284.9 272.6C283.6 276.9 282.5 281.2 281.6 285.0L281.2 285.0C280.1 280.6 279.0 276.5 277.6 272.6L271.1 254.4L257.5 254.4L275.1 296.8L274.4 298.9C273.3 302.2 271.0 304.4 266.5 304.4C265.3 304.4 264.6 304.2 263.4 304L261.0 313.8C263.0 314.6 264.7 315.0 267.4 315.0ZM317.4 299.0C322.6 299.0 326.9 296.7 330.7 293.5L331.0 293.5L332.0 298L343.0 298L343.0 273.3C343.0 259.7 336.5 253.3 324.8 253.3C317.9 253.3 311.4 255.4 305.3 259.1L310.1 267.7C314.8 265.2 318.6 264 322.2 264C327.2 264 329.2 266.2 329.5 269.9C311.4 271.7 303.7 276.7 303.7 285.9C303.7 293.1 309.1 299.0 317.4 299.0ZM321.9 288.7C318.8 288.7 316.6 287.4 316.6 284.8C316.6 281.6 319.8 279.1 329.5 277.9L329.5 285.1C326.9 287.4 324.9 288.7 321.9 288.7ZM375.4 299.0C385.2 299.0 394.5 290.4 394.5 275.4C394.5 262.1 387.7 253.3 376.7 253.3C372.7 253.3 368.2 254.8 364.5 258L364.9 251.5L364.9 236.6L351.4 236.6L351.4 298L361.9 298L363.0 293.4L363.4 293.4C367.0 297.0 371.3 299.0 375.4 299.0ZM372.2 288.1C369.8 288.1 367.4 287.4 364.9 285.4L364.9 268C367.7 265.2 370.3 264.2 372.8 264.2C378.2 264.2 380.8 268.1 380.8 275.7C380.8 284.5 377.0 288.1 372.2 288.1ZM401.2 298L414.8 298L414.8 236.6L401.2 236.6ZM443.6 299.0C448.7 299.0 454.9 297.4 459.8 294.1L455.5 286.1C452.4 287.8 449.0 288.9 445.4 288.9C440.8 288.9 435.1 287.3 433.4 280.2L460.9 280.2C461.2 279.1 461.5 276.8 461.5 274.3C461.5 262.4 455.0 253.3 442.1 253.3C431.0 253.3 420.5 262.1 420.5 276.2C420.5 290.6 430.6 299.0 443.6 299.0ZM433.4 271.4C434.6 265.4 438.9 263.5 442.3 263.5C447.7 263.5 450.0 267.0 450.0 271.4Z M496.2 298L511.7 298L515.8 281.2C516.6 277.0 517.4 273.0 518.0 268.2L518.4 268.2C519.3 273.0 519.9 277.0 520.8 281.0L525.0 298L540.9 298L551.8 254.4L539.3 254.4L535.0 274.2C534.2 278.5 533.6 282.8 532.9 287.1L532.5 287.1C531.5 282.8 530.7 278.4 529.6 274.2L524.5 254.4L512.7 254.4L507.8 274.2C506.6 278.3 505.8 282.8 505.0 287.1L504.6 287.1C503.8 282.8 503.4 278.4 502.6 274.2L498.2 254.4L484.7 254.4ZM575.9 299.0C587.6 299.0 598.2 290.6 598.2 276.2C598.2 261.8 587.6 253.3 575.9 253.3C564.5 253.3 553.8 261.8 553.8 276.2C553.8 290.6 564.5 299.0 575.9 299.0ZM575.9 288.3C570.3 288.3 567.6 283.4 567.6 276.2C567.6 269.0 570.3 264.2 575.9 264.2C581.7 264.2 584.4 269.0 584.4 276.2C584.4 283.4 581.7 288.3 575.9 288.3ZM604.6 298L618.2 298L618.2 273.0C620.6 267.1 625.0 265.1 628.2 265.1C630.2 265.1 631.4 265.3 632.9 265.6L635.4 254.2C634.1 253.6 632.5 253.3 630.0 253.3C625.3 253.3 620.3 256.2 617.0 262L616.6 262L615.8 254.4L604.6 254.4ZM640.3 298L653.7 298L653.7 287.2L659.3 281.4L669.6 298L684.2 298L667.2 272.6L683.0 254.4L668.3 254.4L654.1 271.0L653.7 271.0L653.7 236.6L640.3 236.6ZM691.6 252.5L691.6 254.5L684.9 254.9L684.9 264.8L691.6 264.8L691.6 298L705.0 298L705.0 264.8L713.3 264.8L713.3 254.4L705.0 254.4L705.0 252.1C705.0 247.8 706.9 246 710.3 246C711.6 246 713.3 246.2 714.9 246.7L717.4 237.0C715.3 236.3 712.0 235.5 708.4 235.5C696.1 235.5 691.6 243.3 691.6 252.5ZM720.6 298L734.2 298L734.2 236.6L720.6 236.6ZM762.3 299.0C774.0 299.0 784.6 290.6 784.6 276.2C784.6 261.8 774.0 253.3 762.3 253.3C750.9 253.3 740.2 261.8 740.2 276.2C740.2 290.6 750.9 299.0 762.3 299.0ZM762.3 288.3C756.7 288.3 754.0 283.4 754.0 276.2C754.0 269.0 756.7 264.2 762.3 264.2C768.1 264.2 770.8 269.0 770.8 276.2C770.8 283.4 768.1 288.3 762.3 288.3ZM798.1 298L813.5 298L817.6 281.2C818.4 277.0 819.2 273.0 819.8 268.2L820.2 268.2C821.1 273.0 821.8 277.0 822.6 281.0L826.9 298L842.7 298L853.7 254.4L841.1 254.4L836.8 274.2C836.0 278.5 835.4 282.8 834.7 287.1L834.3 287.1C833.4 282.8 832.6 278.4 831.4 274.2L826.3 254.4L814.6 254.4L809.6 274.2C808.4 278.3 807.7 282.8 806.8 287.1L806.5 287.1C805.7 282.8 805.2 278.4 804.5 274.2L800.0 254.4L786.6 254.4ZM873.7 299.0C885.8 299.0 892.5 292.8 892.5 285.0C892.5 277.8 887.1 273.8 879.8 271.6C874.1 269.8 871.3 268.8 871.3 266.5C871.3 264.6 873.0 263.2 876.6 263.2C879.9 263.2 883.2 264.1 886.5 266.3L892.2 258.9C888.3 255.6 882.6 253.3 876.2 253.3C865.7 253.3 858.7 258.9 858.7 267.0C858.7 274 864.6 277.9 870.8 280.1C875.4 281.7 879.8 283.0 879.8 285.8C879.8 287.8 878.0 289.1 874.0 289.1C870.3 289.1 866.0 288.2 861.8 285.0L856.2 292.5C860.6 296.6 867.4 299.0 873.7 299.0Z M921.9 252.5L921.9 254.5L915.2 254.9L915.2 264.8L921.9 264.8L921.9 298L935.3 298L935.3 264.8L943.6 264.8L943.6 254.4L935.3 254.4L935.3 252.1C935.3 247.8 937.2 246 940.6 246C941.9 246 943.6 246.2 945.2 246.7L947.8 237.0C945.6 236.3 942.3 235.5 938.7 235.5C926.4 235.5 921.9 243.3 921.9 252.5ZM966.8 299.0C978.5 299.0 989.1 290.6 989.1 276.2C989.1 261.8 978.5 253.3 966.8 253.3C955.4 253.3 944.6 261.8 944.6 276.2C944.6 290.6 955.4 299.0 966.8 299.0ZM966.8 288.3C961.2 288.3 958.5 283.4 958.5 276.2C958.5 269.0 961.2 264.2 966.8 264.2C972.6 264.2 975.3 269.0 975.3 276.2C975.3 283.4 972.6 288.3 966.8 288.3ZM995.5 298L1009.1 298L1009.1 273.0C1011.5 267.1 1015.9 265.1 1019.1 265.1C1021.0 265.1 1022.2 265.3 1023.8 265.6L1026.3 254.2C1025.0 253.6 1023.4 253.3 1020.9 253.3C1016.2 253.3 1011.2 256.2 1007.9 262L1007.5 262L1006.6 254.4L995.5 254.4Z "/></g><mask id="satori_om-id-1-0-2"><rect x="60" y="312" width="1080" height="86" fill="#fff"/></mask><g  ><path fill="#1c1a18" d="M62.1 384L76.1 384L80 370.8L99.9 370.8L103.8 384L118.2 384L98.2 326.9L82 326.9ZM83.1 360.3L84.6 355.3C86.3 349.6 87.5 344.8 89.7 336.9L90 336.9L95.3 355.3L96.8 360.3ZM124.8 384L138.2 384L138.2 326.9L124.8 326.9Z M179.7 385.0C184.9 385.0 189.2 382.7 193.0 379.5L193.4 379.5L194.3 384L205.3 384L205.3 359.3C205.3 345.7 198.8 339.3 187.1 339.3C180.2 339.3 173.7 341.4 167.6 345.1L172.4 353.7C177.1 351.2 180.9 350 184.6 350C189.5 350 191.5 352.2 191.8 355.9C173.7 357.7 166 362.7 166 371.9C166 379.1 171.4 385.0 179.7 385.0ZM184.2 374.7C181.1 374.7 179.0 373.4 179.0 370.8C179.0 367.6 182.2 365.1 191.8 363.9L191.8 371.1C189.2 373.4 187.2 374.7 184.2 374.7ZM230.9 402.4C246.5 402.4 256.4 395.8 256.4 386.6C256.4 378.8 250.2 375.6 239.0 375.6L231.6 375.6C226.6 375.6 224.7 374.6 224.7 372.5C224.7 371.0 225.3 370.2 226.3 369.4C228.4 370 230.4 370.2 231.9 370.2C241.9 370.2 249.9 365.7 249.9 355.8C249.9 353.8 249.3 351.6 248 350.1L255.7 350.1L255.7 340.4L239.0 340.4C236.7 339.6 234.4 339.3 231.9 339.3C222.2 339.3 213.0 344.6 213.0 355.2C213.0 360.2 215.9 364.4 219.0 366.4C216.3 368.3 214.1 371.8 214.1 375.0C214.1 378.5 215.8 380.8 218.2 382.4C214 384.6 211.8 387.8 211.8 391.4C211.8 399.2 220.2 402.4 230.9 402.4ZM233.0 394C226.9 394 222.9 392.4 222.9 389.3C222.9 387.8 223.5 386.6 225.4 385.2C226.9 385.6 228.9 385.8 231.8 385.8L236.6 385.8C241.0 385.8 243.6 386.4 243.6 389.0C243.6 391.8 239.3 394 233.0 394ZM231.9 362.1C228.4 362.1 225.7 359.8 225.7 355.2C225.7 350.6 228.4 348.3 231.9 348.3C235.4 348.3 238.2 350.6 238.2 355.2C238.2 359.8 235.4 362.1 231.9 362.1ZM279.9 385.0C285.0 385.0 291.2 383.4 296.1 380.1L291.8 372.1C288.7 373.8 285.4 374.9 281.8 374.9C277.1 374.9 271.4 373.3 269.8 366.2L297.2 366.2C297.5 365.1 297.8 362.8 297.8 360.3C297.8 348.4 291.4 339.3 278.4 339.3C267.4 339.3 256.8 348.1 256.8 362.2C256.8 376.6 266.9 385.0 279.9 385.0ZM269.7 357.4C271.0 351.4 275.2 349.5 278.6 349.5C284 349.5 286.3 353.0 286.3 357.4ZM304.4 384L318 384L318 354.8C321.0 352.2 323.0 350.7 326.5 350.7C330.4 350.7 332.2 352.6 332.2 358.6L332.2 384L345.6 384L345.6 357.0C345.6 346.2 341.4 339.3 331.4 339.3C325.6 339.3 321.0 342 316.8 345.8L316.4 345.8L315.5 340.4L304.4 340.4ZM373.0 385.0C377.0 385.0 380.3 384.2 383.0 383.2L381.0 373.8C379.5 374.4 378.0 374.6 376.5 374.6C373.0 374.6 370.7 372.6 370.7 367.7L370.7 350.8L381.6 350.8L381.6 340.4L370.7 340.4L370.7 325.4L357.9 327.8L357.9 340.4L351.0 340.4L351.0 350.8L357.2 350.8L357.2 367.8C357.2 378.1 361.7 385.0 373.0 385.0ZM402.2 385.0C414.4 385.0 421.0 378.8 421.0 371.0C421.0 363.8 415.7 359.8 408.4 357.6C402.6 355.8 399.8 354.8 399.8 352.5C399.8 350.6 401.5 349.2 405.2 349.2C408.5 349.2 411.8 350.1 415.0 352.3L420.8 344.9C416.9 341.6 411.2 339.3 404.7 339.3C394.2 339.3 387.3 344.9 387.3 353.0C387.3 360 393.2 363.9 399.4 366.1C403.9 367.7 408.4 369.0 408.4 371.8C408.4 373.8 406.6 375.1 402.6 375.1C398.9 375.1 394.6 374.2 390.4 371.0L384.7 378.5C389.2 382.6 396.0 385.0 402.2 385.0Z "/></g><mask id="satori_om-id-1-1"><rect x="60" y="426" width="1040" height="64" fill="#fff"/></mask><mask id="satori_om-id-1-1-0"><rect x="60" y="426" width="1040" height="32" fill="#fff"/></mask><g  ><path fill="#6b675f" d="M63.1 451L64.9 451L64.9 440.8L64.9 436L66.5 439.7L70.7 449.2L72.2 449.2L76.4 439.7L78 436L78 440.8L78 451L79.8 451L79.8 433.7L77.3 433.7L73.2 443.3L71.6 446.9L71.4 446.9L69.8 443.3L65.6 433.7L63.1 433.7ZM90.1 451.3C93.4 451.3 96.3 448.8 96.3 444.6C96.3 440.4 93.4 437.9 90.1 437.9C86.9 437.9 84.0 440.4 84.0 444.6C84.0 448.9 86.9 451.3 90.1 451.3ZM90.1 449.8C87.7 449.8 85.9 447.7 85.9 444.6C85.9 441.6 87.7 439.5 90.1 439.5C92.6 439.5 94.3 441.6 94.3 444.6C94.3 447.7 92.6 449.8 90.1 449.8ZM99.8 451L101.7 451L101.7 442.6C102.6 440.4 104.0 439.6 105.1 439.6C105.6 439.6 106.0 439.6 106.3 439.7L106.8 438.2C106.3 438.0 105.9 437.9 105.4 437.9C103.8 437.9 102.5 439.0 101.6 440.6L101.5 440.6L101.4 438.3L99.8 438.3ZM110.1 456.5L111.9 456.5L111.9 452.1L111.9 449.8C113.2 450.8 114.5 451.3 115.7 451.3C118.8 451.3 121.6 448.7 121.6 444.4C121.6 440.5 119.8 437.9 116.2 437.9C114.6 437.9 113.1 438.8 111.9 439.8L111.8 439.8L111.6 438.3L110.1 438.3ZM115.5 449.8C114.5 449.8 113.2 449.3 111.9 448.3L111.9 441.4C113.4 440.1 114.6 439.5 115.8 439.5C118.6 439.5 119.7 441.5 119.7 444.5C119.7 447.7 117.9 449.8 115.5 449.8ZM125.5 451L127.3 451L127.3 441.6C128.8 440.2 129.8 439.5 131.3 439.5C133.2 439.5 134.0 440.6 134.0 443.1L134.0 451L135.8 451L135.8 442.9C135.8 439.6 134.6 437.9 131.8 437.9C130.0 437.9 128.7 438.8 127.3 440.1L127.3 432.2L125.5 432.2ZM145.3 451.3C148.6 451.3 151.5 448.8 151.5 444.6C151.5 440.4 148.6 437.9 145.3 437.9C142.1 437.9 139.2 440.4 139.2 444.6C139.2 448.9 142.1 451.3 145.3 451.3ZM145.3 449.8C142.9 449.8 141.1 447.7 141.1 444.6C141.1 441.6 142.9 439.5 145.3 439.5C147.8 439.5 149.5 441.6 149.5 444.6C149.5 447.7 147.8 449.8 145.3 449.8ZM160.0 457.0C164.0 457.0 166.6 454.9 166.6 452.6C166.6 450.5 165.1 449.6 162.1 449.6L159.3 449.6C157.5 449.6 156.9 449.0 156.9 448.1C156.9 447.3 157.4 446.9 157.8 446.5C158.5 446.8 159.3 446.9 159.9 446.9C162.6 446.9 164.8 445.2 164.8 442.5C164.8 441.3 164.2 440.2 163.5 439.7L166.4 439.7L166.4 438.3L161.8 438.3C161.3 438.1 160.7 437.9 159.9 437.9C157.3 437.9 155.0 439.7 155.0 442.5C155.0 444.0 155.9 445.2 156.7 445.9C156.1 446.3 155.3 447.3 155.3 448.4C155.3 449.3 155.8 450.0 156.5 450.4C155.3 451.3 154.5 452.4 154.5 453.5C154.5 455.7 156.7 457.0 160.0 457.0ZM160.3 455.7C157.7 455.7 156.2 454.7 156.2 453.3C156.2 452.5 156.6 451.6 157.7 450.9C158.4 451.1 159.0 451.1 159.4 451.1L162.0 451.1C163.8 451.1 164.8 451.6 164.8 452.8C164.8 454.3 163.1 455.7 160.3 455.7ZM159.9 445.7C158.3 445.7 156.8 444.4 156.8 442.5C156.8 440.5 158.3 439.3 159.9 439.3C161.6 439.3 163.1 440.5 163.1 442.5C163.1 444.4 161.6 445.7 159.9 445.7ZM174.9 451.3C176.7 451.3 178.1 450.8 179.2 450.0L178.5 448.9C177.6 449.4 176.5 449.8 175.1 449.8C172.7 449.8 170.6 448.2 170.4 445.0L179.7 445.0C179.7 444.7 179.8 444.3 179.8 443.9C179.8 440.2 177.8 437.9 174.5 437.9C171.5 437.9 168.6 440.5 168.6 444.6C168.6 448.8 171.4 451.3 174.9 451.3ZM170.4 443.7C170.7 440.6 172.8 439.4 174.6 439.4C176.8 439.4 178.1 440.9 178.1 443.7ZM183.5 451L185.4 451L185.4 441.6C186.8 440.3 187.8 439.5 189.3 439.5C191.2 439.5 192.0 440.6 192.0 443.1L192.0 451L193.8 451L193.8 442.9C193.8 439.6 192.6 437.9 189.8 437.9C188.0 437.9 186.7 438.8 185.3 440.2L185.2 440.2L185.0 438.3L183.5 438.3Z M204.8 451L206.7 451L206.7 438.3L204.8 438.3ZM205.7 435.5C206.4 435.5 207 434.9 207 434.2C207 433.4 206.4 432.9 205.7 432.9C205.0 432.9 204.4 433.4 204.4 434.2C204.4 434.9 205.0 435.5 205.7 435.5ZM215.4 451.3C218.4 451.3 220.2 449.6 220.2 447.6C220.2 445.2 218.0 444.4 215.9 443.7C214.3 443.1 213 442.6 213 441.4C213 440.4 213.9 439.4 215.7 439.4C217.0 439.4 217.9 439.8 218.8 440.4L219.7 439.3C218.7 438.5 217.3 437.9 215.7 437.9C212.9 437.9 211.2 439.5 211.2 441.5C211.2 443.6 213.3 444.5 215.2 445.1C216.8 445.7 218.4 446.3 218.4 447.7C218.4 448.9 217.4 449.9 215.5 449.9C213.7 449.9 212.5 449.4 211.3 448.5L210.5 449.5C211.6 450.6 213.4 451.3 215.4 451.3Z M234.5 451.2C235.2 451.2 236.1 451.0 236.9 450.7L236.4 449.4C235.9 449.7 235.3 449.8 234.8 449.8C233.2 449.8 232.7 448.8 232.7 447.2L232.7 439.7L236.4 439.7L236.4 438.3L232.7 438.3L232.7 433.9L230.9 434.4L230.9 438.3L228.8 438.3L228.8 439.7L230.9 439.7L230.9 447.1C230.9 449.6 231.7 451.2 234.5 451.2ZM240.2 451L242.0 451L242.0 441.6C243.5 440.2 244.5 439.5 246.0 439.5C247.9 439.5 248.7 440.6 248.7 443.1L248.7 451L250.5 451L250.5 442.9C250.5 439.6 249.2 437.9 246.5 437.9C244.7 437.9 243.4 438.8 242.0 440.1L242.0 432.2L240.2 432.2ZM260.2 451.3C262.0 451.3 263.4 450.8 264.5 450.0L263.8 448.9C262.9 449.4 261.8 449.8 260.4 449.8C258.0 449.8 255.9 448.2 255.7 445.0L265.0 445.0C265.0 444.7 265.1 444.3 265.1 443.9C265.1 440.2 263.1 437.9 259.8 437.9C256.8 437.9 253.9 440.5 253.9 444.6C253.9 448.8 256.7 451.3 260.2 451.3ZM255.7 443.7C256.0 440.6 258.1 439.4 259.8 439.4C262.1 439.4 263.4 440.9 263.4 443.7Z M280.2 451.3C282.0 451.3 283.3 450.8 284.5 450.0L283.8 448.9C282.9 449.4 281.8 449.8 280.4 449.8C277.9 449.8 275.8 448.2 275.6 445.0L284.9 445.0C285 444.7 285.0 444.3 285.0 443.9C285.0 440.2 283.1 437.9 279.8 437.9C276.7 437.9 273.8 440.5 273.8 444.6C273.8 448.8 276.6 451.3 280.2 451.3ZM275.7 443.7C276 440.6 278.1 439.4 279.8 439.4C282.0 439.4 283.4 440.9 283.4 443.7ZM291.5 451.3C293.2 451.3 294.7 450.5 296.1 449.4L296.2 449.4L296.3 451L297.8 451L297.8 443.1C297.8 440.1 296.6 437.9 293.4 437.9C291.3 437.9 289.5 438.7 288.2 439.6L289.0 440.8C290.1 440.1 291.5 439.5 293.1 439.5C295.6 439.5 296.0 441.5 296.0 443.0C290.2 443.6 287.6 445.0 287.6 447.8C287.6 450.1 289.4 451.3 291.5 451.3ZM292.0 449.8C290.6 449.8 289.4 449.2 289.4 447.6C289.4 445.8 291.1 444.7 296.0 444.2L296.0 448C294.6 449.2 293.4 449.8 292.0 449.8ZM302.2 451L304.0 451L304.0 442.6C305.0 440.4 306.4 439.6 307.5 439.6C308.0 439.6 308.3 439.6 308.7 439.7L309.1 438.2C308.7 438.0 308.3 437.9 307.8 437.9C306.2 437.9 304.8 439.0 304.0 440.6L303.9 440.6L303.7 438.3L302.2 438.3ZM312.3 451L314.1 451L314.1 432.2L312.3 432.2ZM319.0 451L320.8 451L320.8 438.3L319.0 438.3ZM319.8 435.5C320.6 435.5 321.1 434.9 321.1 434.2C321.1 433.4 320.6 432.9 319.8 432.9C319.1 432.9 318.6 433.4 318.6 434.2C318.6 434.9 319.1 435.5 319.8 435.5ZM330.8 451.3C332.7 451.3 334.0 450.8 335.2 450.0L334.5 448.9C333.6 449.4 332.4 449.8 331.1 449.8C328.6 449.8 326.5 448.2 326.3 445.0L335.6 445.0C335.7 444.7 335.7 444.3 335.7 443.9C335.7 440.2 333.8 437.9 330.5 437.9C327.4 437.9 324.5 440.5 324.5 444.6C324.5 448.8 327.3 451.3 330.8 451.3ZM326.4 443.7C326.7 440.6 328.8 439.4 330.5 439.4C332.7 439.4 334.1 440.9 334.1 443.7ZM339.5 451L341.4 451L341.4 442.6C342.3 440.4 343.7 439.6 344.8 439.6C345.3 439.6 345.6 439.6 346.0 439.7L346.4 438.2C346.0 438.0 345.6 437.9 345.1 437.9C343.5 437.9 342.1 439.0 341.3 440.6L341.2 440.6L341.0 438.3L339.5 438.3Z M355.9 456.5L357.8 456.5L357.8 452.1L357.7 449.8C359.1 450.8 360.4 451.3 361.6 451.3C364.7 451.3 367.4 448.7 367.4 444.4C367.4 440.5 365.6 437.9 362.1 437.9C360.5 437.9 358.9 438.8 357.7 439.8L357.6 439.8L357.5 438.3L355.9 438.3ZM361.3 449.8C360.3 449.8 359.1 449.3 357.8 448.3L357.8 441.4C359.2 440.1 360.5 439.5 361.7 439.5C364.4 439.5 365.5 441.5 365.5 444.5C365.5 447.7 363.7 449.8 361.3 449.8ZM371.2 451L373.0 451L373.0 442.6C374.0 440.4 375.4 439.6 376.5 439.6C377.0 439.6 377.3 439.6 377.7 439.7L378.1 438.2C377.7 438.0 377.3 437.9 376.8 437.9C375.2 437.9 373.8 439.0 373.0 440.6L372.9 440.6L372.7 438.3L371.2 438.3ZM385.8 451.3C389.0 451.3 391.9 448.8 391.9 444.6C391.9 440.4 389.0 437.9 385.8 437.9C382.5 437.9 379.6 440.4 379.6 444.6C379.6 448.9 382.5 451.3 385.8 451.3ZM385.8 449.8C383.3 449.8 381.5 447.7 381.5 444.6C381.5 441.6 383.3 439.5 385.8 439.5C388.2 439.5 390.0 441.6 390.0 444.6C390.0 447.7 388.2 449.8 385.8 449.8ZM399.7 451.2C400.5 451.2 401.4 451.0 402.1 450.7L401.7 449.4C401.1 449.7 400.6 449.8 400.1 449.8C398.5 449.8 398.0 448.8 398.0 447.2L398.0 439.7L401.7 439.7L401.7 438.3L398.0 438.3L398.0 433.9L396.2 434.4L396.2 438.3L394.1 438.3L394.1 439.7L396.1 439.7L396.1 447.1C396.1 449.6 397.0 451.2 399.7 451.2ZM410.3 451.3C413.5 451.3 416.4 448.8 416.4 444.6C416.4 440.4 413.5 437.9 410.3 437.9C407.1 437.9 404.2 440.4 404.2 444.6C404.2 448.9 407.1 451.3 410.3 451.3ZM410.3 449.8C407.8 449.8 406.1 447.7 406.1 444.6C406.1 441.6 407.8 439.5 410.3 439.5C412.8 439.5 414.5 441.6 414.5 444.6C414.5 447.7 412.8 449.8 410.3 449.8ZM424.3 451.2C425.1 451.2 426.0 451.0 426.7 450.7L426.3 449.4C425.7 449.7 425.2 449.8 424.7 449.8C423.0 449.8 422.5 448.8 422.5 447.2L422.5 439.7L426.2 439.7L426.2 438.3L422.5 438.3L422.5 433.9L420.7 434.4L420.7 438.3L418.7 438.3L418.7 439.7L420.7 439.7L420.7 447.1C420.7 449.6 421.6 451.2 424.3 451.2ZM430.3 456.6C432.9 456.6 434.2 454.7 435.1 452.2L440.2 438.3L438.4 438.3L435.8 445.6C435.5 446.8 435.0 448.1 434.7 449.2L434.6 449.2L433.2 445.6L430.3 438.3L428.4 438.3L433.8 451.1L433.4 452.1C432.8 453.9 431.7 455.1 430.2 455.1C429.9 455.1 429.5 455.0 429.2 454.9L428.8 456.3C429.3 456.5 429.7 456.6 430.3 456.6ZM443.4 456.5L445.2 456.5L445.2 452.1L445.2 449.8C446.5 450.8 447.8 451.3 449.0 451.3C452.1 451.3 454.9 448.7 454.9 444.4C454.9 440.5 453.1 437.9 449.5 437.9C447.9 437.9 446.4 438.8 445.2 439.8L445.1 439.8L444.9 438.3L443.4 438.3ZM448.8 449.8C447.8 449.8 446.5 449.3 445.2 448.3L445.2 441.4C446.7 440.1 447.9 439.5 449.1 439.5C451.9 439.5 453.0 441.5 453.0 444.5C453.0 447.7 451.2 449.8 448.8 449.8ZM463.8 451.3C465.6 451.3 466.9 450.8 468.1 450.0L467.4 448.9C466.5 449.4 465.4 449.8 464.0 449.8C461.6 449.8 459.5 448.2 459.3 445.0L468.6 445.0C468.6 444.7 468.6 444.3 468.6 443.9C468.6 440.2 466.7 437.9 463.4 437.9C460.4 437.9 457.5 440.5 457.5 444.6C457.5 448.8 460.3 451.3 463.8 451.3ZM459.3 443.7C459.6 440.6 461.7 439.4 463.4 439.4C465.6 439.4 467.0 440.9 467.0 443.7Z M483.6 451.3C486.8 451.3 489.7 448.8 489.7 444.6C489.7 440.4 486.8 437.9 483.6 437.9C480.3 437.9 477.5 440.4 477.5 444.6C477.5 448.9 480.3 451.3 483.6 451.3ZM483.6 449.8C481.1 449.8 479.4 447.7 479.4 444.6C479.4 441.6 481.1 439.5 483.6 439.5C486.0 439.5 487.8 441.6 487.8 444.6C487.8 447.7 486.0 449.8 483.6 449.8ZM493.7 436.0L493.7 438.3L491.7 438.4L491.7 439.7L493.7 439.7L493.7 451L495.5 451L495.5 439.7L498.5 439.7L498.5 438.3L495.5 438.3L495.5 436.0C495.5 434.3 496.1 433.3 497.5 433.3C497.9 433.3 498.5 433.4 499.0 433.6L499.4 432.3C498.8 432.0 498.0 431.9 497.4 431.9C494.9 431.9 493.7 433.4 493.7 436.0Z M506.7 451L508.7 451L510.7 445.5L517.9 445.5L519.9 451L522.0 451L515.3 433.7L513.3 433.7ZM511.2 444.0L512.3 441.1C513.0 439.2 513.6 437.5 514.2 435.2L514.3 435.2C515.1 437.5 515.8 439.6 516.4 441.1L517.4 444.0ZM526.0 451L535.5 451L535.5 449.4L527.8 449.4L527.8 433.7L526.0 433.7ZM546.1 451.3C548.7 451.3 550.7 450.5 551.9 449.3L551.9 442.2L545.8 442.2L545.8 443.8L550.1 443.8L550.1 448.6C549.3 449.3 547.8 449.7 546.3 449.7C542.1 449.7 539.7 446.8 539.7 442.3C539.7 437.8 542.3 435.0 546.3 435.0C548.3 435.0 549.6 435.7 550.6 436.6L551.6 435.5C550.6 434.4 548.9 433.4 546.3 433.4C541.3 433.4 537.7 436.8 537.7 442.3C537.7 447.9 541.2 451.3 546.1 451.3ZM555.4 451L557.4 451L559.4 445.5L566.6 445.5L568.6 451L570.6 451L564.0 433.7L562.0 433.7ZM559.9 444.0L561.0 441.1C561.7 439.2 562.2 437.5 562.9 435.2L563.0 435.2C563.8 437.5 564.5 439.6 565.1 441.1L566.1 444.0ZM574.7 451L584.2 451L584.2 449.4L576.5 449.4L576.5 433.7L574.7 433.7ZM590.4 449.8C590.4 450.6 589.7 451.3 588.8 451.3C588.0 451.3 587.4 450.6 587.4 449.8C587.4 449.0 588.0 448.3 588.8 448.3C589.7 448.3 590.4 449.0 590.4 449.8Z M601.2 451L603.1 451L603.1 433.7L601.2 433.7ZM612.7 451.2C613.5 451.2 614.4 451.0 615.1 450.7L614.7 449.4C614.1 449.7 613.6 449.8 613.1 449.8C611.4 449.8 610.9 448.8 610.9 447.2L610.9 439.7L614.6 439.7L614.6 438.3L610.9 438.3L610.9 433.9L609.2 434.4L609.2 438.3L607.1 438.3L607.1 439.7L609.1 439.7L609.1 447.1C609.1 449.6 610.0 451.2 612.7 451.2Z M624.8 451L626.7 451L626.7 442.6C627.6 440.4 629.0 439.6 630.1 439.6C630.6 439.6 631.0 439.6 631.3 439.7L631.8 438.2C631.3 438.0 630.9 437.9 630.4 437.9C628.8 437.9 627.5 439.0 626.6 440.6L626.5 440.6L626.4 438.3L624.8 438.3ZM639.0 451.3C640.8 451.3 642.1 450.4 643.4 449.0L643.5 449.0L643.7 451L645.2 451L645.2 438.3L643.3 438.3L643.3 447.4C641.9 449.1 640.9 449.7 639.5 449.7C637.6 449.7 636.7 448.6 636.7 446.1L636.7 438.3L634.9 438.3L634.9 446.4C634.9 449.6 636.2 451.3 639.0 451.3ZM649.8 451L651.6 451L651.6 441.6C653.0 440.3 654.1 439.5 655.6 439.5C657.5 439.5 658.3 440.6 658.3 443.1L658.3 451L660.1 451L660.1 442.9C660.1 439.6 658.8 437.9 656.1 437.9C654.3 437.9 652.9 438.8 651.6 440.2L651.5 440.2L651.3 438.3L649.8 438.3ZM668.4 451.3C671.4 451.3 673.2 449.6 673.2 447.6C673.2 445.2 671.0 444.4 668.9 443.7C667.3 443.1 666 442.6 666 441.4C666 440.4 666.9 439.4 668.7 439.4C670.0 439.4 670.9 439.8 671.8 440.4L672.7 439.3C671.7 438.5 670.3 437.9 668.7 437.9C665.9 437.9 664.2 439.5 664.2 441.5C664.2 443.6 666.3 444.5 668.2 445.1C669.8 445.7 671.4 446.3 671.4 447.7C671.4 448.9 670.4 449.9 668.5 449.9C666.7 449.9 665.5 449.4 664.3 448.5L663.5 449.5C664.6 450.6 666.4 451.3 668.4 451.3Z M686.1 451.3C687.8 451.3 689.4 450.5 690.7 449.4L690.8 449.4L690.9 451L692.4 451L692.4 443.1C692.4 440.1 691.2 437.9 688.0 437.9C685.9 437.9 684.1 438.7 682.8 439.6L683.6 440.8C684.7 440.1 686.1 439.5 687.7 439.5C690.2 439.5 690.6 441.5 690.6 443.0C684.8 443.6 682.2 445.0 682.2 447.8C682.2 450.1 684.0 451.3 686.1 451.3ZM686.6 449.8C685.2 449.8 684.0 449.2 684.0 447.6C684.0 445.8 685.7 444.7 690.6 444.2L690.6 448C689.2 449.2 688.0 449.8 686.6 449.8ZM696.7 451L698.6 451L698.6 441.6C700.0 440.3 701.1 439.5 702.5 439.5C704.5 439.5 705.3 440.6 705.3 443.1L705.3 451L707.1 451L707.1 442.9C707.1 439.6 705.8 437.9 703.0 437.9C701.3 437.9 699.9 438.8 698.5 440.2L698.4 440.2L698.3 438.3L696.7 438.3Z M717.0 451L719.0 451L721.0 445.5L728.3 445.5L730.2 451L732.3 451L725.6 433.7L723.6 433.7ZM721.5 444.0L722.6 441.1C723.3 439.2 723.9 437.5 724.6 435.2L724.7 435.2C725.4 437.5 726.1 439.6 726.7 441.1L727.7 444.0ZM736.3 451L738.1 451L738.1 433.7L736.3 433.7Z M752.6 451.3C754.3 451.3 755.8 450.5 757.2 449.4L757.2 449.4L757.4 451L758.9 451L758.9 443.1C758.9 440.1 757.7 437.9 754.4 437.9C752.4 437.9 750.6 438.7 749.3 439.6L750.1 440.8C751.2 440.1 752.6 439.5 754.2 439.5C756.7 439.5 757.1 441.5 757.1 443.0C751.2 443.6 748.7 445.0 748.7 447.8C748.7 450.1 750.5 451.3 752.6 451.3ZM753.1 449.8C751.7 449.8 750.5 449.2 750.5 447.6C750.5 445.8 752.2 444.7 757.1 444.2L757.1 448C755.6 449.2 754.5 449.8 753.1 449.8ZM768.3 457.0C772.3 457.0 774.9 454.9 774.9 452.6C774.9 450.5 773.4 449.6 770.3 449.6L767.6 449.6C765.7 449.6 765.2 449.0 765.2 448.1C765.2 447.3 765.6 446.9 766.1 446.5C766.8 446.8 767.6 446.9 768.2 446.9C770.9 446.9 773.0 445.2 773.0 442.5C773.0 441.3 772.4 440.2 771.7 439.7L774.6 439.7L774.6 438.3L770.1 438.3C769.5 438.1 768.9 437.9 768.2 437.9C765.6 437.9 763.3 439.7 763.3 442.5C763.3 444.0 764.1 445.2 765 445.9C764.4 446.3 763.6 447.3 763.6 448.4C763.6 449.3 764.1 450.0 764.8 450.4C763.5 451.3 762.8 452.4 762.8 453.5C762.8 455.7 765 457.0 768.3 457.0ZM768.5 455.7C766.0 455.7 764.4 454.7 764.4 453.3C764.4 452.5 764.9 451.6 766.0 450.9C766.6 451.1 767.3 451.1 767.6 451.1L770.2 451.1C772.1 451.1 773.1 451.6 773.1 452.8C773.1 454.3 771.3 455.7 768.5 455.7ZM768.2 445.7C766.6 445.7 765.1 444.4 765.1 442.5C765.1 440.5 766.5 439.3 768.2 439.3C769.9 439.3 771.3 440.5 771.3 442.5C771.3 444.4 769.8 445.7 768.2 445.7ZM783.1 451.3C785.0 451.3 786.3 450.8 787.5 450.0L786.8 448.9C785.9 449.4 784.8 449.8 783.4 449.8C780.9 449.8 778.8 448.2 778.6 445.0L787.9 445.0C788.0 444.7 788.0 444.3 788.0 443.9C788.0 440.2 786.1 437.9 782.8 437.9C779.7 437.9 776.8 440.5 776.8 444.6C776.8 448.8 779.6 451.3 783.1 451.3ZM778.7 443.7C779.0 440.6 781.1 439.4 782.8 439.4C785.0 439.4 786.4 440.9 786.4 443.7ZM791.8 451L793.6 451L793.6 441.6C795.0 440.3 796.1 439.5 797.5 439.5C799.5 439.5 800.3 440.6 800.3 443.1L800.3 451L802.1 451L802.1 442.9C802.1 439.6 800.8 437.9 798.0 437.9C796.3 437.9 794.9 438.8 793.5 440.2L793.4 440.2L793.3 438.3L791.8 438.3ZM811.2 451.2C812.0 451.2 812.9 451.0 813.6 450.7L813.2 449.4C812.6 449.7 812.1 449.8 811.6 449.8C810.0 449.8 809.4 448.8 809.4 447.2L809.4 439.7L813.1 439.7L813.1 438.3L809.4 438.3L809.4 433.9L807.7 434.4L807.7 438.3L805.6 438.3L805.6 439.7L807.6 439.7L807.6 447.1C807.6 449.6 808.5 451.2 811.2 451.2Z M825.6 451L827.8 451L829.8 443.8C830.2 442.6 830.5 441.4 830.8 440.1L830.9 440.1C831.2 441.4 831.5 442.6 831.8 443.8L833.9 451L836.2 451L839.9 438.3L838.1 438.3L836.0 445.9L835.2 449.4L835.0 449.4L834.1 445.9L831.8 438.3L829.9 438.3L827.7 445.9C827.4 447.1 827.1 448.3 826.8 449.4L826.7 449.4C826.4 448.3 826.2 447.1 825.8 445.9L823.7 438.3L821.8 438.3ZM848.0 451.3C851.2 451.3 854.1 448.8 854.1 444.6C854.1 440.4 851.2 437.9 848.0 437.9C844.7 437.9 841.8 440.4 841.8 444.6C841.8 448.9 844.7 451.3 848.0 451.3ZM848.0 449.8C845.5 449.8 843.7 447.7 843.7 444.6C843.7 441.6 845.5 439.5 848.0 439.5C850.4 439.5 852.2 441.6 852.2 444.6C852.2 447.7 850.4 449.8 848.0 449.8ZM857.6 451L859.5 451L859.5 442.6C860.4 440.4 861.8 439.6 863.0 439.6C863.5 439.6 863.8 439.6 864.2 439.7L864.6 438.2C864.1 438.0 863.7 437.9 863.2 437.9C861.6 437.9 860.3 439.0 859.4 440.6L859.3 440.6L859.2 438.3L857.6 438.3ZM867.6 451L869.4 451L869.4 447.6L872.1 444.6L876.2 451L878.2 451L873.2 443.4L877.6 438.3L875.5 438.3L869.5 445.3L869.4 445.3L869.4 432.2L867.6 432.2ZM881.5 436.0L881.5 438.3L879.5 438.4L879.5 439.7L881.5 439.7L881.5 451L883.3 451L883.3 439.7L886.2 439.7L886.2 438.3L883.3 438.3L883.3 436.0C883.3 434.3 883.9 433.3 885.3 433.3C885.7 433.3 886.2 433.4 886.8 433.6L887.2 432.3C886.6 432.0 885.8 431.9 885.1 431.9C882.7 431.9 881.5 433.4 881.5 436.0ZM889.2 451L891.0 451L891.0 432.2L889.2 432.2ZM900.7 451.3C904.0 451.3 906.8 448.8 906.8 444.6C906.8 440.4 904.0 437.9 900.7 437.9C897.5 437.9 894.6 440.4 894.6 444.6C894.6 448.9 897.5 451.3 900.7 451.3ZM900.7 449.8C898.2 449.8 896.5 447.7 896.5 444.6C896.5 441.6 898.2 439.5 900.7 439.5C903.2 439.5 904.9 441.6 904.9 444.6C904.9 447.7 903.2 449.8 900.7 449.8ZM912.6 451L914.8 451L916.8 443.8C917.2 442.6 917.5 441.4 917.8 440.1L917.9 440.1C918.2 441.4 918.5 442.6 918.8 443.8L920.9 451L923.2 451L926.9 438.3L925.1 438.3L923.0 445.9L922.2 449.4L922.0 449.4L921.1 445.9L918.8 438.3L916.9 438.3L914.7 445.9C914.4 447.1 914.1 448.3 913.8 449.4L913.7 449.4C913.4 448.3 913.2 447.1 912.8 445.9L910.7 438.3L908.8 438.3Z M939.4 451.3C941.0 451.3 942.6 450.5 943.9 449.4L944.0 449.4L944.2 451L945.7 451L945.7 443.1C945.7 440.1 944.4 437.9 941.2 437.9C939.2 437.9 937.3 438.7 936.0 439.6L936.8 440.8C937.9 440.1 939.3 439.5 940.9 439.5C943.4 439.5 943.8 441.5 943.8 443.0C938.0 443.6 935.5 445.0 935.5 447.8C935.5 450.1 937.2 451.3 939.4 451.3ZM939.8 449.8C938.4 449.8 937.3 449.2 937.3 447.6C937.3 445.8 938.9 444.7 943.8 444.2L943.8 448C942.4 449.2 941.2 449.8 939.8 449.8ZM953.9 451.3C956.9 451.3 958.6 449.6 958.6 447.6C958.6 445.2 956.5 444.4 954.3 443.7C952.8 443.1 951.5 442.6 951.5 441.4C951.5 440.4 952.3 439.4 954.2 439.4C955.4 439.4 956.4 439.8 957.3 440.4L958.2 439.3C957.1 438.5 955.7 437.9 954.1 437.9C951.3 437.9 949.7 439.5 949.7 441.5C949.7 443.6 951.7 444.5 953.7 445.1C955.2 445.7 956.8 446.3 956.8 447.7C956.8 448.9 955.8 449.9 954.0 449.9C952.1 449.9 951.0 449.4 949.8 448.5L948.9 449.5C950.1 450.6 951.8 451.3 953.9 451.3Z M971.6 451.3C973.2 451.3 974.8 450.5 976.2 449.4L976.2 449.4L976.4 451L977.9 451L977.9 443.1C977.9 440.1 976.7 437.9 973.4 437.9C971.4 437.9 969.5 438.7 968.3 439.6L969.0 440.8C970.1 440.1 971.5 439.5 973.2 439.5C975.6 439.5 976.1 441.5 976.1 443.0C970.2 443.6 967.7 445.0 967.7 447.8C967.7 450.1 969.4 451.3 971.6 451.3ZM972.0 449.8C970.7 449.8 969.5 449.2 969.5 447.6C969.5 445.8 971.2 444.7 976.1 444.2L976.1 448C974.6 449.2 973.4 449.8 972.0 449.8Z M992.9 451.2C993.6 451.2 994.5 451.0 995.3 450.7L994.8 449.4C994.3 449.7 993.7 449.8 993.2 449.8C991.6 449.8 991.1 448.8 991.1 447.2L991.1 439.7L994.8 439.7L994.8 438.3L991.1 438.3L991.1 433.9L989.3 434.4L989.3 438.3L987.2 438.3L987.2 439.7L989.3 439.7L989.3 447.1C989.3 449.6 990.1 451.2 992.9 451.2ZM998.9 456.6C1001.4 456.6 1002.8 454.7 1003.7 452.2L1008.8 438.3L1007.0 438.3L1004.4 445.6C1004.0 446.8 1003.6 448.1 1003.2 449.2L1003.2 449.2L1001.8 445.6L998.9 438.3L996.9 438.3L1002.3 451.1L1002.0 452.1C1001.4 453.9 1000.3 455.1 998.8 455.1C998.5 455.1 998.1 455.0 997.8 454.9L997.4 456.3C997.8 456.5 998.3 456.6 998.9 456.6ZM1012.0 456.5L1013.8 456.5L1013.8 452.1L1013.8 449.8C1015.1 450.8 1016.4 451.3 1017.6 451.3C1020.7 451.3 1023.5 448.7 1023.5 444.4C1023.5 440.5 1021.7 437.9 1018.1 437.9C1016.5 437.9 1015.0 438.8 1013.8 439.8L1013.7 439.8L1013.5 438.3L1012.0 438.3ZM1017.4 449.8C1016.4 449.8 1015.1 449.3 1013.8 448.3L1013.8 441.4C1015.3 440.1 1016.5 439.5 1017.7 439.5C1020.5 439.5 1021.6 441.5 1021.6 444.5C1021.6 447.7 1019.8 449.8 1017.4 449.8ZM1032.4 451.3C1034.2 451.3 1035.5 450.8 1036.7 450.0L1036.0 448.9C1035.1 449.4 1034.0 449.8 1032.6 449.8C1030.2 449.8 1028.0 448.2 1027.8 445.0L1037.1 445.0C1037.2 444.7 1037.2 444.3 1037.2 443.9C1037.2 440.2 1035.3 437.9 1032.0 437.9C1029.0 437.9 1026.0 440.5 1026.0 444.6C1026.0 448.8 1028.9 451.3 1032.4 451.3ZM1027.9 443.7C1028.2 440.6 1030.3 439.4 1032.0 439.4C1034.2 439.4 1035.6 440.9 1035.6 443.7ZM1045.6 451.3C1047.3 451.3 1048.8 450.4 1049.8 449.4L1049.9 449.4L1050.0 451L1051.6 451L1051.6 432.2L1049.7 432.2L1049.7 437.2L1049.8 439.5C1048.5 438.4 1047.5 437.9 1046.0 437.9C1042.8 437.9 1040.1 440.5 1040.1 444.6C1040.1 448.9 1042.3 451.3 1045.6 451.3ZM1046.0 449.8C1043.4 449.8 1042.0 447.8 1042.0 444.6C1042.0 441.7 1043.9 439.5 1046.2 439.5C1047.5 439.5 1048.5 439.9 1049.7 440.9L1049.7 447.9C1048.5 449.1 1047.3 449.8 1046.0 449.8Z "/></g><mask id="satori_om-id-1-1-1"><rect x="60" y="458" width="1040" height="32" fill="#fff"/></mask><g  ><path fill="#6b675f" d="M67.4 489.0C71.4 489.0 73.9 486.9 73.9 484.6C73.9 482.5 72.4 481.6 69.4 481.6L66.7 481.6C64.8 481.6 64.2 481.0 64.2 480.1C64.2 479.3 64.7 478.9 65.2 478.5C65.9 478.8 66.6 478.9 67.3 478.9C70.0 478.9 72.1 477.2 72.1 474.5C72.1 473.3 71.5 472.2 70.8 471.7L73.7 471.7L73.7 470.3L69.1 470.3C68.6 470.1 68.0 469.9 67.3 469.9C64.6 469.9 62.4 471.7 62.4 474.5C62.4 476.0 63.2 477.2 64.1 477.9C63.5 478.3 62.6 479.3 62.6 480.4C62.6 481.3 63.1 482.0 63.8 482.4C62.6 483.3 61.8 484.4 61.8 485.5C61.8 487.7 64.1 489.0 67.4 489.0ZM67.6 487.7C65.0 487.7 63.5 486.7 63.5 485.3C63.5 484.5 63.9 483.6 65.0 482.9C65.7 483.1 66.4 483.1 66.7 483.1L69.3 483.1C71.1 483.1 72.2 483.6 72.2 484.8C72.2 486.3 70.4 487.7 67.6 487.7ZM67.3 477.7C65.6 477.7 64.2 476.4 64.2 474.5C64.2 472.5 65.6 471.3 67.3 471.3C69.0 471.3 70.4 472.5 70.4 474.5C70.4 476.4 68.9 477.7 67.3 477.7ZM77.4 483L79.3 483L79.3 474.6C80.2 472.4 81.6 471.6 82.8 471.6C83.3 471.6 83.6 471.6 84.0 471.7L84.4 470.2C83.9 470.0 83.5 469.9 83.0 469.9C81.4 469.9 80.1 471.0 79.2 472.6L79.1 472.6L79.0 470.3L77.4 470.3ZM90.1 483.3C91.8 483.3 93.4 482.5 94.7 481.4L94.8 481.4L94.9 483L96.5 483L96.5 475.1C96.5 472.1 95.2 469.9 92.0 469.9C90.0 469.9 88.1 470.7 86.8 471.6L87.6 472.8C88.7 472.1 90.1 471.5 91.7 471.5C94.2 471.5 94.6 473.5 94.6 475.0C88.8 475.6 86.3 477.0 86.3 479.8C86.3 482.1 88.0 483.3 90.1 483.3ZM90.6 481.8C89.2 481.8 88.1 481.2 88.1 479.6C88.1 477.8 89.7 476.7 94.6 476.2L94.6 480C93.2 481.2 92.0 481.8 90.6 481.8ZM101.0 488.5L102.8 488.5L102.8 484.1L102.8 481.8C104.1 482.8 105.4 483.3 106.6 483.3C109.7 483.3 112.4 480.7 112.4 476.4C112.4 472.5 110.6 469.9 107.1 469.9C105.5 469.9 103.9 470.8 102.7 471.8L102.7 471.8L102.5 470.3L101.0 470.3ZM106.3 481.8C105.3 481.8 104.1 481.3 102.8 480.3L102.8 473.4C104.3 472.1 105.5 471.5 106.7 471.5C109.5 471.5 110.5 473.5 110.5 476.5C110.5 479.7 108.8 481.8 106.3 481.8ZM116.4 483L118.2 483L118.2 473.6C119.7 472.2 120.7 471.5 122.2 471.5C124.1 471.5 124.9 472.6 124.9 475.1L124.9 483L126.7 483L126.7 474.9C126.7 471.6 125.4 469.9 122.7 469.9C120.9 469.9 119.6 470.8 118.2 472.1L118.2 464.2L116.4 464.2Z M142.5 483.3C145.7 483.3 148.6 480.8 148.6 476.6C148.6 472.4 145.7 469.9 142.5 469.9C139.2 469.9 136.3 472.4 136.3 476.6C136.3 480.9 139.2 483.3 142.5 483.3ZM142.5 481.8C140.0 481.8 138.2 479.7 138.2 476.6C138.2 473.6 140.0 471.5 142.5 471.5C144.9 471.5 146.7 473.6 146.7 476.6C146.7 479.7 144.9 481.8 142.5 481.8ZM152.6 468.0L152.6 470.3L150.6 470.4L150.6 471.7L152.6 471.7L152.6 483L154.4 483L154.4 471.7L157.3 471.7L157.3 470.3L154.4 470.3L154.4 468.0C154.4 466.3 155.0 465.3 156.4 465.3C156.8 465.3 157.3 465.4 157.9 465.6L158.3 464.3C157.7 464.0 156.9 463.9 156.2 463.9C153.8 463.9 152.6 465.4 152.6 468.0Z M171.6 483.3C173.3 483.3 174.7 482.7 175.9 481.6L175.1 480.5C174.2 481.3 173.1 481.8 171.7 481.8C169.1 481.8 167.3 479.7 167.3 476.6C167.3 473.6 169.3 471.5 171.8 471.5C173.0 471.5 174.0 471.9 174.7 472.6L175.6 471.5C174.7 470.6 173.4 469.9 171.7 469.9C168.4 469.9 165.4 472.4 165.4 476.6C165.4 480.9 168.1 483.3 171.6 483.3ZM183.9 483.3C187.1 483.3 190.0 480.8 190.0 476.6C190.0 472.4 187.1 469.9 183.9 469.9C180.6 469.9 177.8 472.4 177.8 476.6C177.8 480.9 180.6 483.3 183.9 483.3ZM183.9 481.8C181.4 481.8 179.7 479.7 179.7 476.6C179.7 473.6 181.4 471.5 183.9 471.5C186.4 471.5 188.1 473.6 188.1 476.6C188.1 479.7 186.4 481.8 183.9 481.8ZM198.1 483.3C199.9 483.3 201.3 482.4 202.3 481.4L202.4 481.4L202.6 483L204.1 483L204.1 464.2L202.3 464.2L202.3 469.2L202.3 471.5C201.0 470.4 200.0 469.9 198.5 469.9C195.4 469.9 192.6 472.5 192.6 476.6C192.6 480.9 194.8 483.3 198.1 483.3ZM198.5 481.8C196.0 481.8 194.5 479.8 194.5 476.6C194.5 473.7 196.4 471.5 198.7 471.5C200.0 471.5 201.0 471.9 202.3 472.9L202.3 479.9C201.1 481.1 199.8 481.8 198.5 481.8ZM213.5 483.3C215.3 483.3 216.6 482.8 217.8 482.0L217.1 480.9C216.2 481.4 215.1 481.8 213.7 481.8C211.2 481.8 209.1 480.2 208.9 477.0L218.2 477.0C218.3 476.7 218.3 476.3 218.3 475.9C218.3 472.2 216.4 469.9 213.1 469.9C210.0 469.9 207.1 472.5 207.1 476.6C207.1 480.8 210.0 483.3 213.5 483.3ZM209.0 475.7C209.3 472.6 211.4 471.4 213.1 471.4C215.3 471.4 216.7 472.9 216.7 475.7Z M231.4 483.3C233.1 483.3 234.6 482.5 236.0 481.4L236.0 481.4L236.2 483L237.7 483L237.7 475.1C237.7 472.1 236.5 469.9 233.2 469.9C231.2 469.9 229.3 470.7 228.1 471.6L228.9 472.8C229.9 472.1 231.4 471.5 233.0 471.5C235.5 471.5 235.9 473.5 235.9 475.0C230.0 475.6 227.5 477.0 227.5 479.8C227.5 482.1 229.2 483.3 231.4 483.3ZM231.9 481.8C230.5 481.8 229.3 481.2 229.3 479.6C229.3 477.8 231.0 476.7 235.9 476.2L235.9 480C234.4 481.2 233.3 481.8 231.9 481.8ZM242.0 483L243.9 483L243.9 473.6C245.3 472.3 246.4 471.5 247.8 471.5C249.7 471.5 250.6 472.6 250.6 475.1L250.6 483L252.4 483L252.4 474.9C252.4 471.6 251.1 469.9 248.3 469.9C246.6 469.9 245.2 470.8 243.8 472.2L243.7 472.2L243.6 470.3L242.0 470.3ZM261.5 483.3C263.3 483.3 264.7 482.4 265.7 481.4L265.8 481.4L266.0 483L267.5 483L267.5 464.2L265.7 464.2L265.7 469.2L265.7 471.5C264.4 470.4 263.4 469.9 261.9 469.9C258.8 469.9 256.0 472.5 256.0 476.6C256.0 480.9 258.2 483.3 261.5 483.3ZM261.9 481.8C259.3 481.8 257.9 479.8 257.9 476.6C257.9 473.7 259.8 471.5 262.1 471.5C263.4 471.5 264.4 471.9 265.7 472.9L265.7 479.9C264.5 481.1 263.2 481.8 261.9 481.8Z M283.5 483.3C286.6 483.3 289.3 480.7 289.3 476.4C289.3 472.5 287.5 469.9 284.0 469.9C282.5 469.9 281.0 470.6 279.6 471.8L279.7 469.4L279.7 464.2L277.8 464.2L277.8 483L279.3 483L279.5 481.7L279.6 481.7C280.8 482.7 282.2 483.3 283.5 483.3ZM283.2 481.8C282.2 481.8 280.9 481.4 279.7 480.3L279.7 473.4C281.1 472.1 282.4 471.5 283.6 471.5C286.3 471.5 287.4 473.5 287.4 476.5C287.4 479.7 285.6 481.8 283.2 481.8ZM298.1 483.3C301.3 483.3 304.2 480.8 304.2 476.6C304.2 472.4 301.3 469.9 298.1 469.9C294.8 469.9 291.9 472.4 291.9 476.6C291.9 480.9 294.8 483.3 298.1 483.3ZM298.1 481.8C295.6 481.8 293.8 479.7 293.8 476.6C293.8 473.6 295.6 471.5 298.1 471.5C300.5 471.5 302.3 473.6 302.3 476.6C302.3 479.7 300.5 481.8 298.1 481.8ZM311.6 483.3C313.4 483.3 314.8 482.4 316.0 481.0L316.1 481.0L316.3 483L317.8 483L317.8 470.3L316.0 470.3L316.0 479.4C314.6 481.1 313.5 481.7 312.1 481.7C310.2 481.7 309.4 480.6 309.4 478.1L309.4 470.3L307.5 470.3L307.5 478.4C307.5 481.6 308.8 483.3 311.6 483.3ZM322.4 483L324.3 483L324.3 473.6C325.7 472.3 326.8 471.5 328.2 471.5C330.1 471.5 331.0 472.6 331.0 475.1L331.0 483L332.8 483L332.8 474.9C332.8 471.6 331.5 469.9 328.7 469.9C327.0 469.9 325.6 470.8 324.2 472.2L324.1 472.2L324.0 470.3L322.4 470.3ZM341.9 483.3C343.7 483.3 345.1 482.4 346.1 481.4L346.2 481.4L346.4 483L347.9 483L347.9 464.2L346.1 464.2L346.1 469.2L346.1 471.5C344.8 470.4 343.8 469.9 342.3 469.9C339.2 469.9 336.4 472.5 336.4 476.6C336.4 480.9 338.6 483.3 341.9 483.3ZM342.3 481.8C339.7 481.8 338.3 479.8 338.3 476.6C338.3 473.7 340.2 471.5 342.5 471.5C343.8 471.5 344.8 471.9 346.1 472.9L346.1 479.9C344.9 481.1 343.6 481.8 342.3 481.8ZM357.2 483.3C359.1 483.3 360.4 482.8 361.6 482.0L360.9 480.9C360.0 481.4 358.8 481.8 357.5 481.8C355.0 481.8 352.9 480.2 352.7 477.0L362.0 477.0C362.1 476.7 362.1 476.3 362.1 475.9C362.1 472.2 360.2 469.9 356.9 469.9C353.8 469.9 350.9 472.5 350.9 476.6C350.9 480.8 353.7 483.3 357.2 483.3ZM352.8 475.7C353.1 472.6 355.2 471.4 356.9 471.4C359.1 471.4 360.5 472.9 360.5 475.7ZM370.5 483.3C372.2 483.3 373.7 482.4 374.7 481.4L374.8 481.4L374.9 483L376.4 483L376.4 464.2L374.6 464.2L374.6 469.2L374.7 471.5C373.4 470.4 372.3 469.9 370.8 469.9C367.7 469.9 365.0 472.5 365.0 476.6C365.0 480.9 367.2 483.3 370.5 483.3ZM370.9 481.8C368.3 481.8 366.9 479.8 366.9 476.6C366.9 473.7 368.7 471.5 371.1 471.5C372.3 471.5 373.4 471.9 374.6 472.9L374.6 479.9C373.4 481.1 372.2 481.8 370.9 481.8Z M387.0 483L388.8 483L388.8 473.6C390.2 472.2 391.3 471.5 392.4 471.5C394.2 471.5 395.1 472.6 395.1 475.1L395.1 483L396.9 483L396.9 473.6C398.3 472.2 399.4 471.5 400.6 471.5C402.4 471.5 403.2 472.6 403.2 475.1L403.2 483L405.1 483L405.1 474.9C405.1 471.6 403.7 469.9 401.1 469.9C399.5 469.9 398.0 471.0 396.6 472.4C396.0 470.8 394.8 469.9 392.9 469.9C391.4 469.9 390.0 470.8 388.7 472.2L388.6 472.2L388.5 470.3L387.0 470.3ZM414.5 483.3C417.7 483.3 420.6 480.8 420.6 476.6C420.6 472.4 417.7 469.9 414.5 469.9C411.2 469.9 408.3 472.4 408.3 476.6C408.3 480.9 411.2 483.3 414.5 483.3ZM414.5 481.8C412.0 481.8 410.2 479.7 410.2 476.6C410.2 473.6 412.0 471.5 414.5 471.5C416.9 471.5 418.7 473.6 418.7 476.6C418.7 479.7 416.9 481.8 414.5 481.8ZM428.7 483.3C430.4 483.3 431.9 482.4 432.9 481.4L433.0 481.4L433.2 483L434.7 483L434.7 464.2L432.8 464.2L432.8 469.2L432.9 471.5C431.6 470.4 430.6 469.9 429.1 469.9C426.0 469.9 423.2 472.5 423.2 476.6C423.2 480.9 425.4 483.3 428.7 483.3ZM429.1 481.8C426.5 481.8 425.1 479.8 425.1 476.6C425.1 473.7 427.0 471.5 429.3 471.5C430.6 471.5 431.6 471.9 432.8 472.9L432.8 479.9C431.6 481.1 430.4 481.8 429.1 481.8ZM444.0 483.3C445.8 483.3 447.2 482.8 448.3 482.0L447.7 480.9C446.8 481.4 445.6 481.8 444.2 481.8C441.8 481.8 439.7 480.2 439.5 477.0L448.8 477.0C448.9 476.7 448.9 476.3 448.9 475.9C448.9 472.2 447.0 469.9 443.6 469.9C440.6 469.9 437.7 472.5 437.7 476.6C437.7 480.8 440.5 483.3 444.0 483.3ZM439.5 475.7C439.9 472.6 442.0 471.4 443.7 471.4C445.9 471.4 447.3 472.9 447.3 475.7ZM452.7 483L454.5 483L454.5 464.2L452.7 464.2Z M470.5 483.3C472.2 483.3 473.6 482.7 474.8 481.6L474.0 480.5C473.1 481.3 472.0 481.8 470.6 481.8C468.0 481.8 466.2 479.7 466.2 476.6C466.2 473.6 468.2 471.5 470.7 471.5C471.9 471.5 472.8 471.9 473.6 472.6L474.5 471.5C473.6 470.6 472.3 469.9 470.6 469.9C467.3 469.9 464.3 472.4 464.3 476.6C464.3 480.9 467.0 483.3 470.5 483.3ZM481.2 483.3C482.9 483.3 484.4 482.5 485.8 481.4L485.9 481.4L486.0 483L487.5 483L487.5 475.1C487.5 472.1 486.3 469.9 483.0 469.9C481.0 469.9 479.2 470.7 477.9 471.6L478.7 472.8C479.8 472.1 481.2 471.5 482.8 471.5C485.3 471.5 485.7 473.5 485.7 475.0C479.9 475.6 477.3 477.0 477.3 479.8C477.3 482.1 479.1 483.3 481.2 483.3ZM481.7 481.8C480.3 481.8 479.1 481.2 479.1 479.6C479.1 477.8 480.8 476.7 485.7 476.2L485.7 480C484.2 481.2 483.1 481.8 481.7 481.8ZM491.9 483L493.7 483L493.7 464.2L491.9 464.2ZM498.4 483L500.2 483L500.2 464.2L498.4 464.2ZM508.8 483.3C511.8 483.3 513.5 481.6 513.5 479.6C513.5 477.2 511.4 476.4 509.3 475.7C507.7 475.1 506.4 474.6 506.4 473.4C506.4 472.4 507.2 471.4 509.1 471.4C510.3 471.4 511.3 471.8 512.2 472.4L513.1 471.3C512.1 470.5 510.6 469.9 509.1 469.9C506.3 469.9 504.6 471.5 504.6 473.5C504.6 475.6 506.6 476.5 508.6 477.1C510.1 477.7 511.8 478.3 511.8 479.7C511.8 480.9 510.8 481.9 508.9 481.9C507.0 481.9 505.9 481.4 504.7 480.5L503.9 481.5C505.0 482.6 506.8 483.3 508.8 483.3ZM516.3 486.2L516.8 487.3C518.7 486.5 520.0 484.8 520.0 482.6C520.0 481.2 519.3 480.3 518.3 480.3C517.6 480.3 516.9 480.8 516.9 481.7C516.9 482.6 517.5 483.0 518.3 483.0C518.4 483.0 518.4 483.0 518.6 483.0C518.6 484.6 517.5 485.6 516.3 486.2Z M533.5 483.3C535.1 483.3 536.7 482.5 538.1 481.4L538.1 481.4L538.3 483L539.8 483L539.8 475.1C539.8 472.1 538.5 469.9 535.3 469.9C533.3 469.9 531.4 470.7 530.2 471.6L530.9 472.8C532.0 472.1 533.4 471.5 535.0 471.5C537.5 471.5 538.0 473.5 538.0 475.0C532.1 475.6 529.6 477.0 529.6 479.8C529.6 482.1 531.3 483.3 533.5 483.3ZM533.9 481.8C532.6 481.8 531.4 481.2 531.4 479.6C531.4 477.8 533.0 476.7 538.0 476.2L538.0 480C536.5 481.2 535.3 481.8 533.9 481.8ZM544.1 483L545.9 483L545.9 473.6C547.3 472.3 548.4 471.5 549.9 471.5C551.8 471.5 552.6 472.6 552.6 475.1L552.6 483L554.4 483L554.4 474.9C554.4 471.6 553.2 469.9 550.4 469.9C548.6 469.9 547.2 470.8 545.9 472.2L545.8 472.2L545.6 470.3L544.1 470.3ZM563.6 483.3C565.3 483.3 566.8 482.4 567.8 481.4L567.9 481.4L568.0 483L569.5 483L569.5 464.2L567.7 464.2L567.7 469.2L567.8 471.5C566.5 470.4 565.4 469.9 564.0 469.9C560.8 469.9 558.1 472.5 558.1 476.6C558.1 480.9 560.3 483.3 563.6 483.3ZM564.0 481.8C561.4 481.8 560.0 479.8 560.0 476.6C560.0 473.7 561.8 471.5 564.2 471.5C565.4 471.5 566.5 471.9 567.7 472.9L567.7 479.9C566.5 481.1 565.3 481.8 564.0 481.8Z M582.3 483L584.5 483L586.5 475.8C586.9 474.6 587.2 473.4 587.5 472.1L587.6 472.1C588.0 473.4 588.2 474.6 588.6 475.8L590.7 483L593.0 483L596.6 470.3L594.9 470.3L592.8 477.9L591.9 481.4L591.8 481.4L590.8 477.9L588.6 470.3L586.7 470.3L584.4 477.9C584.1 479.1 583.8 480.3 583.5 481.4L583.4 481.4C583.1 480.3 582.9 479.1 582.6 477.9L580.4 470.3L578.5 470.3ZM599.8 483L601.7 483L601.7 474.6C602.6 472.4 604.0 471.6 605.1 471.6C605.6 471.6 606.0 471.6 606.3 471.7L606.7 470.2C606.3 470.0 605.9 469.9 605.4 469.9C603.8 469.9 602.4 471.0 601.6 472.6L601.5 472.6L601.3 470.3L599.8 470.3ZM610.1 483L611.9 483L611.9 470.3L610.1 470.3ZM610.9 467.5C611.7 467.5 612.2 466.9 612.2 466.2C612.2 465.4 611.7 464.9 610.9 464.9C610.2 464.9 609.6 465.4 609.6 466.2C609.6 466.9 610.2 467.5 610.9 467.5ZM621.3 483.2C622.0 483.2 622.9 483.0 623.6 482.7L623.2 481.4C622.7 481.7 622.1 481.8 621.6 481.8C620.0 481.8 619.5 480.8 619.5 479.2L619.5 471.7L623.2 471.7L623.2 470.3L619.5 470.3L619.5 465.9L617.7 466.4L617.7 470.3L615.6 470.3L615.6 471.7L617.6 471.7L617.6 479.1C617.6 481.6 618.5 483.2 621.3 483.2ZM632.0 483.3C633.8 483.3 635.2 482.8 636.3 482.0L635.6 480.9C634.7 481.4 633.6 481.8 632.2 481.8C629.8 481.8 627.7 480.2 627.5 477.0L636.8 477.0C636.8 476.7 636.9 476.3 636.9 475.9C636.9 472.2 634.9 469.9 631.6 469.9C628.6 469.9 625.7 472.5 625.7 476.6C625.7 480.8 628.5 483.3 632.0 483.3ZM627.5 475.7C627.8 472.6 630.0 471.4 631.7 471.4C633.9 471.4 635.2 472.9 635.2 475.7ZM643.9 483.3C646.9 483.3 648.6 481.6 648.6 479.6C648.6 477.2 646.5 476.4 644.3 475.7C642.7 475.1 641.4 474.6 641.4 473.4C641.4 472.4 642.3 471.4 644.2 471.4C645.4 471.4 646.4 471.8 647.3 472.4L648.2 471.3C647.1 470.5 645.7 469.9 644.1 469.9C641.3 469.9 639.7 471.5 639.7 473.5C639.7 475.6 641.7 476.5 643.7 477.1C645.2 477.7 646.8 478.3 646.8 479.7C646.8 480.9 645.8 481.9 643.9 481.9C642.1 481.9 640.9 481.4 639.8 480.5L638.9 481.5C640.1 482.6 641.8 483.3 643.9 483.3Z M661.6 483.3C663.2 483.3 664.8 482.5 666.2 481.4L666.2 481.4L666.4 483L667.9 483L667.9 475.1C667.9 472.1 666.6 469.9 663.4 469.9C661.4 469.9 659.5 470.7 658.3 471.6L659.0 472.8C660.1 472.1 661.5 471.5 663.1 471.5C665.6 471.5 666.1 473.5 666.1 475.0C660.2 475.6 657.7 477.0 657.7 479.8C657.7 482.1 659.4 483.3 661.6 483.3ZM662.0 481.8C660.7 481.8 659.5 481.2 659.5 479.6C659.5 477.8 661.2 476.7 666.1 476.2L666.1 480C664.6 481.2 663.4 481.8 662.0 481.8Z M678.4 483L680.3 483L680.3 474.6C681.2 472.4 682.6 471.6 683.7 471.6C684.2 471.6 684.6 471.6 684.9 471.7L685.3 470.2C684.9 470.0 684.5 469.9 684.0 469.9C682.4 469.9 681.0 471.0 680.2 472.6L680.1 472.6L679.9 470.3L678.4 470.3ZM693.1 483.3C695.0 483.3 696.3 482.8 697.5 482.0L696.8 480.9C695.9 481.4 694.8 481.8 693.4 481.8C690.9 481.8 688.8 480.2 688.6 477.0L697.9 477.0C698.0 476.7 698.0 476.3 698.0 475.9C698.0 472.2 696.1 469.9 692.8 469.9C689.7 469.9 686.8 472.5 686.8 476.6C686.8 480.8 689.6 483.3 693.1 483.3ZM688.7 475.7C689.0 472.6 691.1 471.4 692.8 471.4C695.0 471.4 696.4 472.9 696.4 475.7ZM706.9 483.3C708.6 483.3 710.0 482.7 711.2 481.6L710.4 480.5C709.6 481.3 708.4 481.8 707.1 481.8C704.4 481.8 702.6 479.7 702.6 476.6C702.6 473.6 704.6 471.5 707.1 471.5C708.3 471.5 709.3 471.9 710.0 472.6L710.9 471.5C710.0 470.6 708.8 469.9 707.0 469.9C703.7 469.9 700.7 472.4 700.7 476.6C700.7 480.9 703.4 483.3 706.9 483.3ZM719.4 483.3C721.2 483.3 722.5 482.8 723.7 482.0L723.0 480.9C722.1 481.4 721.0 481.8 719.6 481.8C717.2 481.8 715.1 480.2 714.9 477.0L724.2 477.0C724.2 476.7 724.2 476.3 724.2 475.9C724.2 472.2 722.3 469.9 719.0 469.9C716.0 469.9 713.1 472.5 713.1 476.6C713.1 480.8 715.9 483.3 719.4 483.3ZM714.9 475.7C715.2 472.6 717.3 471.4 719.0 471.4C721.2 471.4 722.6 472.9 722.6 475.7ZM728.2 483L730.1 483L730.1 470.3L728.2 470.3ZM729.1 467.5C729.8 467.5 730.4 466.9 730.4 466.2C730.4 465.4 729.8 464.9 729.1 464.9C728.4 464.9 727.8 465.4 727.8 466.2C727.8 466.9 728.3 467.5 729.1 467.5ZM735.1 488.5L736.9 488.5L736.9 484.1L736.9 481.8C738.2 482.8 739.5 483.3 740.7 483.3C743.8 483.3 746.6 480.7 746.6 476.4C746.6 472.5 744.8 469.9 741.2 469.9C739.6 469.9 738.1 470.8 736.9 471.8L736.8 471.8L736.6 470.3L735.1 470.3ZM740.5 481.8C739.5 481.8 738.2 481.3 736.9 480.3L736.9 473.4C738.4 472.1 739.6 471.5 740.8 471.5C743.6 471.5 744.7 473.5 744.7 476.5C744.7 479.7 742.9 481.8 740.5 481.8ZM754.7 483.2C755.4 483.2 756.3 483.0 757.0 482.7L756.6 481.4C756.0 481.7 755.5 481.8 755.0 481.8C753.4 481.8 752.9 480.8 752.9 479.2L752.9 471.7L756.6 471.7L756.6 470.3L752.9 470.3L752.9 465.9L751.1 466.4L751.1 470.3L749.0 470.3L749.0 471.7L751.0 471.7L751.0 479.1C751.0 481.6 751.9 483.2 754.7 483.2Z M771.2 483.2C772.0 483.2 772.9 483.0 773.6 482.7L773.2 481.4C772.6 481.7 772.1 481.8 771.6 481.8C769.9 481.8 769.4 480.8 769.4 479.2L769.4 471.7L773.1 471.7L773.1 470.3L769.4 470.3L769.4 465.9L767.7 466.4L767.7 470.3L765.6 470.3L765.6 471.7L767.6 471.7L767.6 479.1C767.6 481.6 768.5 483.2 771.2 483.2ZM776.9 483L778.8 483L778.8 473.6C780.2 472.2 781.2 471.5 782.7 471.5C784.6 471.5 785.4 472.6 785.4 475.1L785.4 483L787.2 483L787.2 474.9C787.2 471.6 786.0 469.9 783.2 469.9C781.4 469.9 780.1 470.8 778.8 472.1L778.8 464.2L776.9 464.2ZM795.0 483.3C796.6 483.3 798.2 482.5 799.6 481.4L799.6 481.4L799.8 483L801.3 483L801.3 475.1C801.3 472.1 800.0 469.9 796.8 469.9C794.8 469.9 792.9 470.7 791.7 471.6L792.4 472.8C793.5 472.1 794.9 471.5 796.5 471.5C799.0 471.5 799.5 473.5 799.5 475.0C793.6 475.6 791.1 477.0 791.1 479.8C791.1 482.1 792.8 483.3 795.0 483.3ZM795.4 481.8C794.1 481.8 792.9 481.2 792.9 479.6C792.9 477.8 794.5 476.7 799.5 476.2L799.5 480C798.0 481.2 796.8 481.8 795.4 481.8ZM810.0 483.2C810.7 483.2 811.6 483.0 812.3 482.7L811.9 481.4C811.3 481.7 810.8 481.8 810.3 481.8C808.7 481.8 808.2 480.8 808.2 479.2L808.2 471.7L811.9 471.7L811.9 470.3L808.2 470.3L808.2 465.9L806.4 466.4L806.4 470.3L804.3 470.3L804.3 471.7L806.3 471.7L806.3 479.1C806.3 481.6 807.2 483.2 810.0 483.2Z M822.0 483L823.9 483L823.9 474.6C824.9 472.4 826.2 471.6 827.4 471.6C827.9 471.6 828.2 471.6 828.6 471.7L829.0 470.2C828.6 470.0 828.1 469.9 827.6 469.9C826.0 469.9 824.7 471.0 823.8 472.6L823.7 472.6L823.6 470.3L822.0 470.3ZM836.8 483.3C838.6 483.3 840.0 482.8 841.1 482.0L840.4 480.9C839.5 481.4 838.4 481.8 837.0 481.8C834.6 481.8 832.5 480.2 832.3 477.0L841.6 477.0C841.6 476.7 841.7 476.3 841.7 475.9C841.7 472.2 839.7 469.9 836.4 469.9C833.4 469.9 830.5 472.5 830.5 476.6C830.5 480.8 833.3 483.3 836.8 483.3ZM832.3 475.7C832.6 472.6 834.7 471.4 836.4 471.4C838.7 471.4 840.0 472.9 840.0 475.7ZM845.6 488.5L847.5 488.5L847.5 484.1L847.4 481.8C848.8 482.8 850.0 483.3 851.3 483.3C854.3 483.3 857.1 480.7 857.1 476.4C857.1 472.5 855.3 469.9 851.8 469.9C850.2 469.9 848.6 470.8 847.4 471.8L847.3 471.8L847.2 470.3L845.6 470.3ZM851.0 481.8C850.0 481.8 848.7 481.3 847.5 480.3L847.5 473.4C848.9 472.1 850.2 471.5 851.4 471.5C854.1 471.5 855.2 473.5 855.2 476.5C855.2 479.7 853.4 481.8 851.0 481.8ZM860.9 483L862.7 483L862.7 464.2L860.9 464.2ZM870.5 483.3C872.2 483.3 873.7 482.5 875.1 481.4L875.1 481.4L875.3 483L876.8 483L876.8 475.1C876.8 472.1 875.6 469.9 872.3 469.9C870.3 469.9 868.4 470.7 867.2 471.6L868.0 472.8C869.0 472.1 870.5 471.5 872.1 471.5C874.6 471.5 875.0 473.5 875.0 475.0C869.1 475.6 866.6 477.0 866.6 479.8C866.6 482.1 868.3 483.3 870.5 483.3ZM871.0 481.8C869.6 481.8 868.4 481.2 868.4 479.6C868.4 477.8 870.1 476.7 875.0 476.2L875.0 480C873.5 481.2 872.4 481.8 871.0 481.8ZM881.2 488.6C883.8 488.6 885.2 486.7 886.0 484.2L891.2 470.3L889.4 470.3L886.8 477.6C886.4 478.8 886.0 480.1 885.6 481.2L885.5 481.2L884.1 477.6L881.2 470.3L879.3 470.3L884.7 483.1L884.4 484.1C883.7 485.9 882.7 487.1 881.2 487.1C880.9 487.1 880.5 487.0 880.2 486.9L879.7 488.3C880.2 488.5 880.7 488.6 881.2 488.6ZM897.9 483.3C900.9 483.3 902.6 481.6 902.6 479.6C902.6 477.2 900.5 476.4 898.3 475.7C896.7 475.1 895.4 474.6 895.4 473.4C895.4 472.4 896.3 471.4 898.2 471.4C899.4 471.4 900.4 471.8 901.3 472.4L902.2 471.3C901.1 470.5 899.7 469.9 898.1 469.9C895.3 469.9 893.7 471.5 893.7 473.5C893.7 475.6 895.7 476.5 897.7 477.1C899.2 477.7 900.8 478.3 900.8 479.7C900.8 480.9 899.8 481.9 897.9 481.9C896.1 481.9 894.9 481.4 893.8 480.5L892.9 481.5C894.1 482.6 895.8 483.3 897.9 483.3Z M917.4 483.3C920.7 483.3 923.5 480.8 923.5 476.6C923.5 472.4 920.7 469.9 917.4 469.9C914.2 469.9 911.3 472.4 911.3 476.6C911.3 480.9 914.2 483.3 917.4 483.3ZM917.4 481.8C915.0 481.8 913.2 479.7 913.2 476.6C913.2 473.6 915.0 471.5 917.4 471.5C919.9 471.5 921.6 473.6 921.6 476.6C921.6 479.7 919.9 481.8 917.4 481.8ZM927.5 468.3L927.5 470.3L925.5 470.4L925.5 471.7L927.5 471.7L927.5 483L929.3 483L929.3 471.7L935.2 471.7L935.2 483L937.0 483L937.0 471.7L939.9 471.7L939.9 470.3L937.0 470.3L937.0 468.0C937.0 466.3 937.6 465.3 939.0 465.3C939.4 465.3 939.9 465.4 940.5 465.7L941.0 464.3C940.3 464.0 939.5 463.9 938.8 463.9C936.4 463.9 935.2 465.4 935.2 468.0L935.2 470.3L929.3 470.3L929.3 468.4C929.3 466.6 930.1 465.6 931.5 465.6C932.1 465.6 932.7 465.7 933.4 466.0L933.8 464.6C933.0 464.3 932.2 464.1 931.4 464.1C928.9 464.1 927.5 465.7 927.5 468.3ZM942.7 483L944.5 483L944.5 464.2L942.7 464.2ZM949.4 483L951.2 483L951.2 470.3L949.4 470.3ZM950.3 467.5C951 467.5 951.6 466.9 951.6 466.2C951.6 465.4 951.0 464.9 950.3 464.9C949.5 464.9 949.0 465.4 949.0 466.2C949.0 466.9 949.5 467.5 950.3 467.5ZM956.1 483L957.9 483L957.9 473.6C959.3 472.3 960.4 471.5 961.8 471.5C963.8 471.5 964.6 472.6 964.6 475.1L964.6 483L966.4 483L966.4 474.9C966.4 471.6 965.1 469.9 962.4 469.9C960.6 469.9 959.2 470.8 957.8 472.2L957.7 472.2L957.6 470.3L956.1 470.3ZM976.1 483.3C978.0 483.3 979.3 482.8 980.4 482.0L979.8 480.9C978.9 481.4 977.7 481.8 976.3 481.8C973.9 481.8 971.8 480.2 971.6 477.0L980.9 477.0C981.0 476.7 981 476.3 981 475.9C981 472.2 979.1 469.9 975.7 469.9C972.7 469.9 969.8 472.5 969.8 476.6C969.8 480.8 972.6 483.3 976.1 483.3ZM971.6 475.7C972.0 472.6 974.1 471.4 975.8 471.4C978 471.4 979.4 472.9 979.4 475.7ZM987.3 481.8C987.3 482.6 986.6 483.3 985.8 483.3C985.0 483.3 984.3 482.6 984.3 481.8C984.3 481.0 985.0 480.3 985.8 480.3C986.6 480.3 987.3 481.0 987.3 481.8Z "/></g><defs><clipPath id="satori_bc-id-2"><rect x="60" y="516" width="1080" height="54"/></clipPath></defs><mask id="satori_om-id-2"><rect x="60" y="518" width="1080" height="52" fill="#fff"/><path width="1080" height="54" fill="none" stroke="#000" stroke-width="4" d="M60,516 A0,0 0 0 1 60,516 h1080 A0,0 0 0 1 1140,516"/></mask><path width="1080" height="54" clip-path="url(#satori_bc-id-2)" fill="none" stroke="#355e3b" stroke-width="4" d="M60,516 A0,0 0 0 1 60,516 h1080 A0,0 0 0 1 1140,516"/><mask id="satori_om-id-2-0"><rect x="60" y="530" width="199" height="29" fill="#fff"/></mask><g  ><path fill="#355e3b" d="M61.8 553L65.9 553L65.9 544.2C66.8 543.4 67.6 543.0 68.3 543.0C69.4 543.0 70.0 543.6 70.0 545.4L70.0 553L74.0 553L74.0 544.2C74.9 543.4 75.6 543.0 76.3 543.0C77.5 543.0 78.0 543.6 78.0 545.4L78.0 553L82.1 553L82.1 544.9C82.1 541.6 80.7 539.6 77.8 539.6C76.0 539.6 74.7 540.6 73.5 541.8C72.8 540.3 71.5 539.6 69.7 539.6C67.9 539.6 66.7 540.5 65.6 541.6L65.4 541.6L65.2 539.9L61.8 539.9ZM91.5 553.3C95.0 553.3 98.2 550.8 98.2 546.4C98.2 542.1 95.0 539.6 91.5 539.6C88.1 539.6 84.8 542.1 84.8 546.4C84.8 550.8 88.1 553.3 91.5 553.3ZM91.5 550.1C89.8 550.1 89.0 548.6 89.0 546.4C89.0 544.3 89.8 542.8 91.5 542.8C93.2 542.8 94.0 544.3 94.0 546.4C94.0 548.6 93.2 550.1 91.5 550.1ZM101.3 553L105.4 553L105.4 545.5C106.1 543.7 107.4 543.1 108.4 543.1C109.0 543.1 109.3 543.2 109.8 543.3L110.5 539.8C110.1 539.7 109.7 539.6 108.9 539.6C107.5 539.6 106.0 540.4 105.0 542.2L104.9 542.2L104.6 539.9L101.3 539.9ZM113.3 557.8L117.3 557.8L117.3 554.0L117.2 552.0C118.2 552.9 119.4 553.3 120.5 553.3C123.4 553.3 126.2 550.7 126.2 546.3C126.2 542.2 124.2 539.6 120.9 539.6C119.4 539.6 118.1 540.2 117.0 541.2L116.9 541.2L116.6 539.9L113.3 539.9ZM119.5 550.0C118.7 550.0 118.0 549.8 117.3 549.2L117.3 544C118.2 543.2 118.9 542.9 119.7 542.9C121.3 542.9 122.1 544.0 122.1 546.3C122.1 548.9 121.0 550.0 119.5 550.0ZM129.6 553L133.7 553L133.7 544.2C134.6 543.4 135.2 543.0 136.2 543.0C137.4 543.0 137.9 543.6 137.9 545.4L137.9 553L141.9 553L141.9 544.9C141.9 541.6 140.7 539.6 137.7 539.6C135.8 539.6 134.7 540.4 133.7 541.3L133.7 534.6L129.6 534.6ZM151.4 553.3C154.9 553.3 158.1 550.8 158.1 546.4C158.1 542.1 154.9 539.6 151.4 539.6C147.9 539.6 144.7 542.1 144.7 546.4C144.7 550.8 147.9 553.3 151.4 553.3ZM151.4 550.1C149.7 550.1 148.9 548.6 148.9 546.4C148.9 544.3 149.7 542.8 151.4 542.8C153.1 542.8 153.9 544.3 153.9 546.4C153.9 548.6 153.1 550.1 151.4 550.1ZM166.3 558.5C171.0 558.5 174.0 556.6 174.0 553.8C174.0 551.4 172.1 550.5 168.8 550.5L166.5 550.5C165.0 550.5 164.5 550.2 164.5 549.5C164.5 549.1 164.6 548.9 165.0 548.6C165.6 548.8 166.2 548.9 166.6 548.9C169.6 548.9 172.0 547.5 172.0 544.5C172.0 543.9 171.8 543.3 171.5 542.8L173.8 542.8L173.8 539.9L168.8 539.9C168.1 539.7 167.4 539.6 166.6 539.6C163.7 539.6 160.9 541.2 160.9 544.4C160.9 545.9 161.8 547.1 162.8 547.7C162.0 548.3 161.3 549.4 161.3 550.3C161.3 551.3 161.8 552.0 162.5 552.5C161.3 553.2 160.6 554.1 160.6 555.2C160.6 557.6 163.1 558.5 166.3 558.5ZM167.0 556C165.1 556 163.9 555.5 163.9 554.6C163.9 554.1 164.1 553.8 164.7 553.4C165.1 553.5 165.7 553.5 166.6 553.5L168.0 553.5C169.4 553.5 170.1 553.7 170.1 554.5C170.1 555.4 168.8 556 167.0 556ZM166.6 546.4C165.6 546.4 164.8 545.7 164.8 544.4C164.8 543.0 165.6 542.3 166.6 542.3C167.7 542.3 168.5 543.0 168.5 544.4C168.5 545.7 167.7 546.4 166.6 546.4ZM182.2 553.3C183.8 553.3 185.6 552.8 187.1 551.8L185.8 549.4C184.9 549.9 183.9 550.3 182.8 550.3C181.4 550.3 179.7 549.8 179.2 547.6L187.4 547.6C187.5 547.3 187.6 546.6 187.6 545.9C187.6 542.3 185.7 539.6 181.8 539.6C178.5 539.6 175.3 542.2 175.3 546.4C175.3 550.8 178.3 553.3 182.2 553.3ZM179.2 545.0C179.5 543.2 180.8 542.7 181.8 542.7C183.5 542.7 184.2 543.7 184.2 545.0ZM190.8 553L194.9 553L194.9 544.2C195.7 543.4 196.4 543.0 197.4 543.0C198.6 543.0 199.1 543.6 199.1 545.4L199.1 553L203.1 553L203.1 544.9C203.1 541.6 201.9 539.6 198.9 539.6C197.1 539.6 195.8 540.4 194.5 541.6L194.4 541.6L194.1 539.9L190.8 539.9ZM212.0 550.8C212.0 552.2 210.9 553.3 209.5 553.3C208.1 553.3 207.0 552.2 207.0 550.8C207.0 549.4 208.1 548.3 209.5 548.3C210.9 548.3 212.0 549.4 212.0 550.8ZM220.4 553.3C221.7 553.3 223.1 552.7 224.1 551.7L224.2 551.7L224.5 553L227.8 553L227.8 534.6L223.8 534.6L223.8 539.0L223.9 541.0C223.0 540.1 222.0 539.6 220.5 539.6C217.7 539.6 214.8 542.2 214.8 546.4C214.8 550.7 217.1 553.3 220.4 553.3ZM221.5 550.0C219.9 550.0 219.0 548.9 219.0 546.4C219.0 544.0 220.1 542.9 221.5 542.9C222.3 542.9 223.1 543.1 223.8 543.7L223.8 548.9C223.1 549.7 222.4 550.0 221.5 550.0ZM237.3 553.3C238.9 553.3 240.7 552.8 242.2 551.8L240.9 549.4C240.0 549.9 239.0 550.3 237.9 550.3C236.5 550.3 234.8 549.8 234.3 547.6L242.5 547.6C242.6 547.3 242.7 546.6 242.7 545.9C242.7 542.3 240.8 539.6 236.9 539.6C233.6 539.6 230.4 542.2 230.4 546.4C230.4 550.8 233.4 553.3 237.3 553.3ZM234.3 545.0C234.6 543.2 235.9 542.7 237.0 542.7C238.6 542.7 239.3 543.7 239.3 545.0ZM249.0 553L253.7 553L258.1 539.9L254.3 539.9L252.5 546.0C252.1 547.3 251.8 548.4 251.4 550.0L251.4 550.0C250.9 548.5 250.7 547.5 250.3 546.0L248.5 539.9L244.4 539.9Z "/></g></svg>
